<mxfile host="app.diagrams.net" agent="Mozilla/5.0 (Windows NT 10.0; Win64; x64) AppleWebKit/537.36 (KHTML, like Gecko) Chrome/138.0.0.0 Safari/537.36" version="28.0.6" pages="2">
  <diagram name="ATM - Consulta de saldos y movimientos desde ATM Santander" id="2YBvvXClWsGukQMizWep">
    <mxGraphModel dx="2279" dy="2004" grid="1" gridSize="10" guides="1" tooltips="1" connect="1" arrows="1" fold="1" page="1" pageScale="1" pageWidth="850" pageHeight="1100" math="0" shadow="0">
      <root>
        <mxCell id="0" />
        <mxCell id="1" parent="0" />
        <mxCell id="rcuyuubHEXPFA7V1nobL-5" value="&lt;div style=&quot;&quot;&gt;&lt;br&gt;&lt;/div&gt;" style="text;html=1;strokeColor=#000000;fillColor=none;align=left;verticalAlign=top;whiteSpace=wrap;rounded=0;fontSize=12;strokeWidth=1;" parent="1" vertex="1">
          <mxGeometry x="536" y="-170" width="804" height="350" as="geometry" />
        </mxCell>
        <mxCell id="UOhI1Jb9BPqGJdpc2Sex-45" value="&amp;lt;&amp;lt;Altair 390&amp;gt;&amp;gt;&amp;nbsp;&lt;div&gt;CAPTACIÃ“N&lt;/div&gt;" style="shape=umlLifeline;perimeter=lifelinePerimeter;whiteSpace=wrap;html=1;container=1;dropTarget=0;collapsible=0;recursiveResize=0;outlineConnect=0;portConstraint=eastwest;newEdgeStyle={&quot;edgeStyle&quot;:&quot;elbowEdgeStyle&quot;,&quot;elbow&quot;:&quot;vertical&quot;,&quot;curved&quot;:0,&quot;rounded&quot;:0};align=center;fontStyle=1" parent="1" vertex="1">
          <mxGeometry x="1639" y="360" width="160" height="2520" as="geometry" />
        </mxCell>
        <mxCell id="UOhI1Jb9BPqGJdpc2Sex-1" value="&lt;div&gt;&lt;b&gt;&amp;lt;&amp;lt;Altair 390&amp;gt;&amp;gt;&lt;/b&gt;&lt;/div&gt;&lt;div&gt;&lt;b style=&quot;background-color: initial;&quot;&gt;PAMPA&lt;/b&gt;&lt;/div&gt;" style="shape=umlLifeline;perimeter=lifelinePerimeter;whiteSpace=wrap;html=1;container=1;dropTarget=0;collapsible=0;recursiveResize=0;outlineConnect=0;portConstraint=eastwest;newEdgeStyle={&quot;edgeStyle&quot;:&quot;elbowEdgeStyle&quot;,&quot;elbow&quot;:&quot;vertical&quot;,&quot;curved&quot;:0,&quot;rounded&quot;:0};align=center;" parent="1" vertex="1">
          <mxGeometry x="1398" y="359" width="160" height="2521" as="geometry" />
        </mxCell>
        <mxCell id="Bnk67_aWibF8yN_9XxKm-28" value="&lt;span style=&quot;color: rgb(0, 0, 0);&quot;&gt;&lt;b&gt;&amp;nbsp; &amp;nbsp; &amp;lt;&amp;lt;Autorizador&amp;gt;&amp;gt;&amp;nbsp;&lt;/b&gt;&lt;/span&gt;&lt;div&gt;&lt;span style=&quot;color: rgb(0, 0, 0);&quot;&gt;&lt;b&gt;&amp;nbsp; Stratos Plard&lt;/b&gt;&lt;/span&gt;&lt;/div&gt;" style="shape=umlLifeline;perimeter=lifelinePerimeter;whiteSpace=wrap;html=1;container=1;dropTarget=0;collapsible=0;recursiveResize=0;outlineConnect=0;portConstraint=eastwest;newEdgeStyle={&quot;edgeStyle&quot;:&quot;elbowEdgeStyle&quot;,&quot;elbow&quot;:&quot;vertical&quot;,&quot;curved&quot;:0,&quot;rounded&quot;:0};align=center;" parent="1" vertex="1">
          <mxGeometry x="678" y="359" width="161" height="2521" as="geometry" />
        </mxCell>
        <mxCell id="Bnk67_aWibF8yN_9XxKm-1" value="PLARD ATM: Consultar saldos y movimientos de la CC asociada a una TDD - MODELO FUNCIONAL DE SECUENCIA" style="rounded=0;whiteSpace=wrap;html=1;align=center;fontSize=16;fontStyle=1" parent="1" vertex="1">
          <mxGeometry x="9" y="201" width="2271" height="79" as="geometry" />
        </mxCell>
        <mxCell id="Bnk67_aWibF8yN_9XxKm-202" value="&lt;img alt=&quot;&quot; src=&quot;data:image/png;base64,iVBORw0KGgoAAAANSUhEUgAAAOgAAABXCAYAAAAONQnYAAAAAXNSR0IArs4c6QAAAARnQU1BAACxjwv8YQUAAAAJcEhZcwAAFxEAABcRAcom8z8AACX3SURBVHhe7Z0JmBTVtcdPL9N797BIFEWFqIiAskgU0IggGiMvbhF5aDQmrnFHBBVRjGwSQEUNboDGGBeeu2ERVBCVXYFhBGbt6a7uWnudGTZR6v1PTzEOAwPTQ4+A1P/7zlfLPXWreub++pxbdes2mTJlypQpU6ZMmTJlypQpU6ZMmTJlypQpU6ZMmTJlypQpU6ZMmTJlqokqpEKH1lrz89LYZcpU47WI+tkjdHlrJW9wd9l2zcCY/U9nB+nPLqPYVHayhNzasUGvcH4ooFwUDqhDQ375CSxfLW4h9jN8TJnat3Qia4L+51zZdtk/ZPvlMyT7Ve/K9qvXxB3XKJrjmk9C7r8ea7iaykLlPvG8cL48N+xXhEhAVYSAmhQCmi600PTyFsr1hpspU/tWMV0cSNove3tb3mA9lXeVnswboicdQ/Wtjj/riuPabyOuIccbrqayUIU3ckesRVrX8lO6lB/XRZiUn9RD+cqOsoB8reFmytS+FaberZL2yxdsB6BS3hW6DEhlxxA95fgTltesFNzXtjNcTWWhoC9yWzRf1dlC+RJM1iP5MT2cr243ATXVaIXo3JYp++VztgBME9DcyQTUVE5kAto8MgHNocJErXYSOY3NI0omoM0jE9DcyKIRdUoRvRIjegTrfmP/ESMT0ObRoQCoTrqlhOLHl5PYr5SUK8spenMpSSNLKPo7w+XQVoioZZzo/R/xWdJE25JEY3Uij1F8RMgEtHl0MAEtoIKjyylyaTlJU2ELg6SUV5CaCpG2TaSkXkryDMP10JZE5E0QPQE4t+wApAB0G6Lok9j/K8PlFy8T0OZRuU+4+ecGtJCiJ4QpdiPsgyDJ8Shg1GiLrlC1HqW0HiRNj1AyFSR1snHIoa8oIqaK9BaRdPP3NZDuBKQzKomOMlx+VhUSOYrJ1yZJ+R0k8nZVKb9nglr8VqWjB6l0zCUqHTdIoXa/i1GHs2TqeEaSOnYoo1/nG4dnreYENEzD3FHXAydIeaO7iPZxvWTn+Askx7hBomPCJYJj4qCoc8rvZPvU3pG8p7qLjmmdo64XT9BaT/JzamZU0WjxMWvpNa/qmdc24pjTUfDOPUN0L+gV8i4cKHgWDBI8n11SY58PCjm/uEjwL+8d8XzdI0iLWhhV7FeraXVekbvoONFX3DnqKekZ8hah7tJBFbAST/BiwS30rvCJncu8ZUeHvMI9kXxl588BaOa6SBoUInVeiGJbGEoVUCK1rS4lcR1sZhlFH0I0vXsjRa8JkdTFOPTwUJDIBSiHA84ER1JE1B8B7CyA29ZwaRYhnbag/9syRo7TFHJcmbQ67k9Y3FNiFu+HmiWwVrO0KNIsrUtVy1EhzXqMpFmPhbWTFGt7UbF2KFetp5Ro1o7fqrZOryfsXR9Sbd1/L1PXo43qG6VcA6rRCL9oH9VLcT5yu+p49J+i49Gvo67HiqOux8uirrGRqGucHHVNlKKuSbApYsT9ZDDqfrok6p5WFHE9u0JxPz9T9bw0OuT65/WC5/luwfxX9gqQTrNtQc/sYyT3e2eJrnevlz0fjZa9/50e8Xz8ueCdsyHsnVsc9s4vE3wLImHfAlnwfSYJvs9hi6Wwd0lU8H1VEfZ9XSx4ll1iVLlXLaJF9gpfYeewf+NfooHiyYK3aHHIt6m4wl9UGvKXRcL+MinsL5dC/qAY8oeCwfxQcUVA+CIciH4dzpd+EABmcwJaSOFWxRQZgzRWZihV2oxIqcbKSX4TgF5XSsIpG2nj4X9vZTaRDenuHTCNIynAQXpAb8NONVxyLpnoaHwZPFtNlpVxylMSFtePKYtHr7T49CpLPqwVrA22f6WnrW1h7WAnwDrATtIrrR1hnfSUrbMet3XdmbB1E+LW7h+K1h7DZGevXxun2adyBWgh3e6THCMGq46Rr2jOh9cprtFbY64xetw1Vk+4JmA5QY+5n4BNgk3WNfdTsGlYf06Pu6fDntfjnhd1wKnLnpd2iu6X0gnXa99G3bPGLaIx9pqz/KRyx79PVT3vvR7zfFQY9bxXKXk/2ql45+iad76u+T7NmOpbpCu+xYZ9CfsathS2XE/4v9GlwAo95P1qiFFlfVkirvV9BV/BP8RA8fKof1OVHCjRlUCFrgbCWIZ1OSDAIqhHzJgckHWlhZaxSAZK0bDmATREm48FmC/AdnDURFq7HWC+i0h5dZCSjc4MDhvxuFSF6IYYuqcM6WYY1ucB0k6GS07F9eKLIKSTVa8kh560uPQEAI0BUA2AapaWsKNgbXREUNhxsONh7XXV+mvYKbBT9ZjtNAZUT9u66VW2M/WE7cztMduZSzQ6+9LZNNhmnG6vygWgSt493SXH8JdVx4hYwjVKT7oe0VXXaF3GUnI9qouuv8Me10X3ONgE2BN6FJBG3VNhT8OmwZ7Ro57ndMnzPAMKUGfp27xv6RHPzBU6vbLHgP2g8/X+iuedZLV3nq54P9YBqC7Cot7/6oJvDmwu7BPYQsM+hy2GfQH7Upf9y/WIf1la8C/7vVFlrYL5a1qEvOvviXrXF0v+TboWKAOAxXoksEkXsAxnrARWBivXQ4C2xkIAUQCEEVi0WQEtoLKjS0l6LUxxtNGtgFOJlZH04Foq/eXfPwE41wCciu0/Qfq5RHS2UZwzcXRGxC7ZAkCR5gJMF8wDIGsATQDQJABNAdAUAE0hgqYQQZMANA5ANQNQFYCqti6wM2A99CQgrbadBVB7C6K9z/0SXeg1TrmHDhRQ1XHvoLhz+IqEc4SecD4IKB8AjA/CRsFGwx7Fvsd1xTUOEXMCbBJssq66n4Q9rSvuZ3UZtgvQqGc67AXYS3rS+5oueGZ8uTdAw67/9BM9/6do3g/1iPd92AcwXv9YjwBOEXBKiKIyomiNLYF9BfsatkxP+tegfEVJifez3fpjUdfqE6Legumif/1mLVCkR/0bAOF3MF6yFQHSEj0KMEUAKSGSioFoxqKwCIAUAGdzAlpMYhtEyplhiukyVeoVpFYA1r+MoTFWw+WXL6Sfl6MfuokhZcP6ylxDyoCi31u8D0B/SFhabUEUTSGCauiDyoig8bi1fWXM2mFHGilulfU0gNh5N0BVW09YL73K3ldP2PtUadbetxqn3EMHAqhsu/0C1XF3SbVzpK4679clmOgaWQuoAjgTSHFjgBOAfi+7xqdF13gNfVAl4vpHPOKamhRd06oB6fcNAzpzSUOASp535L0DOm+n6Jv/fcS3sFrwfpIMexdq3AcN+xYpgndxXPAtSWr+Vdtk36pPiml5wKiSYq2WB0TvupkKoGQL+wtg62sB5Qiq5iPFzQ9hvfyHiD9YhX5oHNFTrghUaGF/OB0NiNujADKa6Xs2D6BIZe8TKPFjDGktQA0D2KuMoiNLAGgAwFyxDYBuhSHarUQ0vdAoPmA1BGjK4gegATlOLR+LU+BWjVpfF6djBmvU9nKVjh2i0gk3Is0dGbecMiNpPXVFzNZpWyVSXK0eoIr9bEB6LlLgvmWa7ZzzjdPupqYCKuXd1EV03Lm8ElDKzmGA877dAI1l0ttHdqiux1ZKrr+/gCg6POIc+xfJPXFw2DHxCsk1+eqoa8q1Uee0myTns49HnM9qSgbOAwNU8c1D9Jy3TPTOuy/qWXBT2Dv/WtH36VUh9+eXBd2fXRnxfj6kwrvkT2Hfktsj/pXoAszOdAF00m0R37ePSIH1O2Q/gPSv3Q1QKRM1S7As3RDxl/8n5Ct5OOwruykcKP3foK/0ipAvNDjkD90Q8gv3IsV9IuSPruQbROEMqLkDtIQifUKklXNaGyK1EoDebBQdmQKQZ8FWMqBGJC0CWJcbxQekhgDdDEBjFv+3q6ntPgdNKNTGF6OTO2vWjiM1a+fSSgAaqweoau+jV9vP0zX7uXNidFZttNilpgBaSIMdkuNvL6UBpuK8F2Cy1QAqIcWNM5zOUQLS20fkvJGnR2nMfj7HP46JOp8p4ptEBwpoEv1NyffJ04Zbo1XhXD5A8K6Oa5zGZuD8CVAFfU7BvxH91aLnBX9x74L8gpbGYQ0qCFD5EUskh49ZFlHQVU7S63ynltPbMlKeX0pht1F85Aog9YJ9xZDyzSNE0nKF6IDTiv0BupaObrDvWFf8uEaiLv3j1q7LqwGnBlMMQBUAmkAUVey/3Spb+w01DqlVUwCV7bf0UR23y6kMmHfXART9UNfDgPahCsHx0FX7u0G1SzGaehwALc4VoEqWgBbSbJ/gW/1GHJFSQN+0LqAy0tpIYKOCFPfOKEUbPcqsOQYqlJE8EH3NJA88KCNpY5C0Zrl5eVgKfdIzAOaCaiOSptBGVKIbxxA1uWO+P0A3Uuusnl8p9u5949YewWqGsw6gqv0cpLrnY/38t9fWu2HUFEDVvNsmpQGm4rxrN0Djzgd1xfGAEHU8cIXh2ihFaMrxuQV0wTS4NHqwQ8S1ok/Ut1pRMxHz21pAo0h1xcCGbYJ/wzCkwFn9n3M91I/Pj+g5XaJKHg2kV5A82igytUsC0SlIcd+pxN+LBzRgPQZIb0IEa1SkqK9cA8rSrN1Gpm09d8Rtv6kFVAGglQA0bhsQVGlAT8M1o2wBFdw3tVMdt62qdt4DKO+sBVR2DtdjzgdQx4jHDddG62ADKnhXDdP86/SI/5vdANWQ2oZ8hfPX0JqsnynmGtBiEtqh77k6RTt4IELpJhLOMIpM1VWE6HiAOZMHMhjproJ0d0SYKOu+QHMAGqZux8WsPQsr6wGaAqAJe//qsO283aJbtoCGbTderDpu3RrLwPkToAnnSETUEd9F6L6OhmujdTAB5bRV9K1+Kx4oBJSrawEV/YUAtgDRc/11NZ7ZKdeABkk6H/1OrYp+1AWKvTGbZpszAzYkQNoacM0AXD8ag+yrAe3jPK7XcGmUmgNQlmrp+QwDqtp71wIas/cDoAN2Stb+Iwy3jLIFVLTfeGvSeTtgvH03QKucD+mxvBHTm/Is7mACKrq+PjHiXbFRy6S3PwGqcd/TX1BYcdSGJg33zDWg6HPeIVDihyildKS6Dxi7TTWkNCBFevscImgGUqS9WwDbTUZxo9RsgFp7DEkAUK0OoKr9PH2L/UI9aRvIjbdW2QDK03KKeTc9zYDKdQBVnMN0zXn/Tskx/G7DNSsdTEBD7hW95Ez/c109QIsA6PolhZ2bNodtjgG1lJP6bJK+18MUry6myB+M/ab2pSBRC0D6BCBL8DulVUQreZ9RvF81F6CyrccF3AetC6gCQLcD0CrbwBfhUtt4swE0RtcGFPvNc9IAsy6g8Uz/c3il6Bixz4HnDemgprjeZRcixU3KmX5nDaACYJX9G7AseFlv4uicXALKb6sIFH+9mvTM62JFJDbp73xEivueAG22DkDRL42gP3qSUbRfNVsEtff8rWbrtQegWwFoyjZwRt3HH9kAGqWhR2mOW1ZUAkzR+bd6gI6IKa77zjVcs9LBBFTyrPgf0beqUs48XqkBFKkt90F3Rn2FDxpuWSuXgM6lYqdAyTeqaCf6n4k0v1pmFJnan9D3vBpp7iaOoAC0CFG00YOVmwtQxX7mOTxQoT6g2wBo2nbhy3X7idkBegsAvXV1fUATzvsZUC3iuq+v4ZqVDiagEffSPzQEaMT/3W799WyU2wiq54mURgStAbTUjKCNk0w0FIBJ3Afl4YAA9El+I8Yo3q+aL4L26hfbC6Cc4qZtA18w3DLKNoIqjltXMaDSboAO5z5oLHoYRtBQA4BKmeF+BeMNt6yVS0DHkG4NkvZyJf2ghyhWZQK6H/G7o2miGwCXzI9aEDX5Je//ixEdZ7g0Ss3YB700vgeg/fQt9oF6wnbBU4ZbRtn2QeW8m+dxH1Sq1wfVnMNTUef9FxmuWelg90El3+pE/T6o6ucRROvf4zG6hmtWyvFNIiql8Ej0P3dGKPFDkMS/GbtN1RcipEMluhfRMvUDNgEYD1iYiX1Z345vthTX2v2hVL3HLHH7+XrMPuDHqLX/XYZbRtkAyn1X0XbzU/Xv4qrOYbDhP0Sdw5o0cPtgAiraV/QSfd8oamDPu7hRf+FKpU2hz3DNSrkGtJxCF4UplkxnnoPGZ+0a5G+qjlYTeRAlRwGqSoYTUXMHIJsWbeL8Rc0BaJBOdGnWHgurAGj9gQpJe/+0aBuw2wvK2QDKkvNuuSUBOOs+B5WN56Ba3sgn4dIoMOrqYAK60bmovehducdz0Jo3WtZrFd5vLjBcs1KuAS2m0ElBUr9L16S5a3jbKDLF2kjkTxBNBZSZGQARQXkGwPEKUZO+YVnNASjPS5Sw9Uwm6wFaae+vx239N4g0oLPhmlG2gIq2Gy9RHLdt1zJw1gDKAxVSmXG4968S3CN382+MDiagq2m1B33QN+P+3UcSRTjNrXkW+iLPS2S4N1q5BpQftQRJeo3nHQqR9mMFKXcaRaaKiQIMJ6DcyZETyy0cSbH/gGajzzWgGp3qT1i7v7+V+5+wXYDyYHkeiyvbzp+p05l5hntG2QIq0Z/bq47b1lbVG4vLL2yrzhE7ZPvIBl8Ob0gCTWt3sABlyd5v7+EUt/5YXMm/Efu+U4L+gqxvyuQaUFY5qUPKSd6mUJVeSuKKDVTRrJPaHRbiOXLRx5yOyPkj3xDCMgVYR6EvultDb4r2B2ghtWl0dA5Stxaq5fSJSVv3HQnbmXu8bqbaf1slU7893mPNFlB+cI8091kGVK4DKL/NkuQo6nxgXcg+qpfh3iiV0dNHA9CcvQ+aLaCCe3lvwbdKUfnl7DqA8utm/C5oJLDxCzGwMavPVO4Tbs01oDwRGACdy++DVpC6A5COaepNrF+EACYPjP83v2Jm3BBSkdLevogo65Rnb9oPoN8sQn/ScG1Q/LqbnNfxDM3WZWbMdsb2ZAMvbKvWc9/Z29xE2QLKEmw399ccd8aSGTB/AlTJvA86ShedDy2Luh46x3DfpxR6zhfJm3KD6HomrnqePyiAhmmpW/Cuejnh34CIufv7oAJSX54wTPBv+jbs/+6voq+4jXHYPlXhC98o5hhQVgmJF1eQFuMZFQCpAmAvNYqOLAHEkwFn5tUyI62NACh+s6HR//j9qSFAK2sADWrU4lqFWvaV6OgOFXRCW4VOPCYIi1G741Q6sYdmO+lyzdJpnGbttDZh66onbd0AZvcMoLsiaGXmDu45ZQnqc55x2t3UFEDDdJVbcdz+70rnMERRTnV3vbB9f2bSsLhrtB51jlofc4+5W8gbc0apd8yvIv4JrYtbjQmk8ie2zGw7JnQU3VP/KLqfmiW6pikSTxyWgzmJmgIoq9S9olfU921RDGltXUB5RgVEUETSMsC7KSUEit8PBzbdHvGWXrDJV9BpY+uNxwY9wWMKYRs8FW2D+cH2FfkVPUP+yDORfAVQKjkFlPui6H9OlSi9s2ZyanklImlW0f2wF9LaLgDyM57Rz0hrSwFTTqY5qauGAOVJw2KW/B/jlhZpzdI6mLIc9WXK0nZuynLsf1OW42HtP41Z2heq1lOSMWunnWlbZz22l0nD0va+gLPvZtXat8HHH00BlBXNu7mn7LxjA89JVBdQnpNIcj0ESB/VFdcj2yTnYwWqc+yHsnPs2xHX2JdF94T/qK7JH6iuKcsAaFIFmJr7n/rBBpQV8a0ZLPkKYjF/0W6A7po0jOclkgNBXQyUbo34y6IRf3Cl5BfmR32R/2bML80T8+Ul4fxoUTgQrWyuScPWkdAO0fNdmdK6mHm7Rf06SHIfo/iXLZ45AZFzMc+aYKS1xYimFxvFOdV+ANXTlpaZias3W36lb7a2hbWDnQDroFdZT9JT1o56fC/TbsYAKE+7GbOfvVmy9X68/iwKddVUQFmC9c4/qc57Y2mktvzCdv1Z/VRjVr8kT1oNU9w8efUkPemeqifcT2cmrpZhqvs5AMpwHlxA+W5t1LNulOhbn4770ffM9El/ApSN58UVA+UANaxrAVGPBSRdDcgwBabpKiBU8jWkts03qx+rhKQu5SR9JVNVZupNRNJvsW9IIem/3PdEAWYfALOUh+0Z05oUwJoFTta+AN3bxNUx63GwPSeuVgAo+qB6HCluGnCmbWcC3F4lqr3XPWHqvc8XyRsCNNkIQHnGdynv7r9ojvtK084HamZUQIobrTcvruT6O2wsYBwPECfWTlytuJ/S44ieEde0AtH17GdyBs6fAE1kCahwgICyJPrEK/jW3Br1rV8jId1VM7P58YTVSH0zkCK6AtK6E1eHA6Fa44mraywCYzijMInB1KX8ZGZZ4hevN053QEJqe2Y5KQv5HVFOdxFV5TKSJxVTpIfehN+3OaSFtHZADNkDP+NkOBNEyxE5mzT4u7HaF6BxAFplTFwdA6CxOoDGAKgGQGMANGXthGjZBVbTB41Zu0Xjlh4zFPsZjRoXC4Bbpe2Xf6rn/a+eBpyVeUP0Ssc1+veOG3TVce26iGvI8YZrg4ra7rpIzrtvjuIYsSXlejgzs7xWM+0mbAzs8QygknscoHwC0XOqnkLkBKA7oq6nPy9zPfnbhHv63du9/0LUnAGbBXtV3+57G+DNWhGmqXt8yVQ43xigeN5LbfZ+ose9c2HzAPQnOOZLPeZdMB0uB9RASzyreoZ8Bc8JvsIy9EF/UAGilh/MzIsrAkwhUAorhwXrABoGgDyrfEQX0fdU8hPwT+lKi6QuA04Z6wBUKffJlxmnOWCVU+TUMpL+BTi3xmkbz7aAaKqsKyPlsQqKnhOi0H5nIDzkhch5Cb+RwmAag94/BZzdjOJmU0OAxjI3iQKbK6llUZxab65GiluNFLcKKW4VUtwqpLjVSHHjADRh7SRXWzsXxq1dFiQsXSfJdPrAQurc6Mczq+nM/Crblc9/bx9cmLL/cW3aPmRt2jF07WbHdYUJx3VvBj2DjzFc96kKuretaL//b4ii7yddo79TXA8nE67HACunuONhE5HaTkIUnfgDAC2PuZ9cJLqmjq5wPtOBj4+7Xhiy1fNKQdwzY13cO2tt3Pvq2mrP69+p3tdeLaZpezxvDtvf+k3c88HitGfu+rh3Dvznro155q+r9i0qTPk+49fEDjiCLKWl7qB7de+Ib8OjEX/R+0qgdJ0aCJZF/aXbVERJDdFRhSmIkApSWAVQcoqLfqgeCchJOT9epAZSBZGAujySL78mBGKTwgF16AZ/pLVxipyoABAicg7jEUaC8VMQIVJ55oUQ+qZvV5AysoTE6zaScH6QIt2LKJbVmPGDJp3IDhivriIq48i5BYYoOlclynpenaaoIUCragAt1Ch/gEatb6ukNlMqLW1hx02utBwP6zC52nLyFIVOelykU69K0am9ItTl+KbMMMgD/7fSoF8n867omci7olsi7+qMRfOu7qk6ruuo0y1ZPe8V6a42mn1EL8k56gbV/ejkmHvslJh7PJbjJyfcT0yRXZNGRZz/GCg5n2qPP3ctRJX04lHVnle6K56Z3XaZ6pnVUwm8dvLe0jVORePeD7tEPB/0UDwfw39+xlTPRz1j7k9z3gCLqbiN4FnfTfCWDgh5N90XDZRPVQPRyXJAmCwFpFpTWqhTAOiEcL70V6Vl/JxofrJn0BftpLXWmvSzio2XbgGkZwDGcYim64Kk7IzRZl2D8SyAiKqbwxSrECldiIj7mHHQoa0wUas00UJ+2ZojJ6Lo+yLRiUZxs6shQI3noKsRCTMdflyfrQFrxn/4gYsH19fY7Izt7VfKDlfxAIG922xeNmkWhlyIr4F//5N/6h5p7vuwoECJSp7omgc48EvfKPsPPA/ptpMRDzhAejuokmgN4HwP0bRRP9mXK+0H0Ca/zWLKFGsDbWhdQlL/IGnXlJM4upQiz5aSPBOA3gCQD31Adwmg9AKgJxibP5tMQE39XGIggxR08TSjSNcPaAz5ESMTUFOmDmGZgJoydQjrlw5oGVE+PqP5JWPq8NQvHVB8vltjRDkZNWPK1M+uXYBuBaBxABoHoCkAuhOAahb/hsMd0DTR81VES/lxlrHLlKnDR4gup6WIBB2AbgWgmwFo3OLZvs3iD8coMEdq5O+DHqiWErn5uaqxecDi1JZn2OfoCUC34UuoUQ/GVxPlSUTtZaJf49g9fmy4KeLPdaAzX+xLXD9PXo7lQXv2aaqZxDMBJoimJMnyrxjlTYU9ESfPTUny9JTI2eFAfnu0seJhjoh0EwHV0cauAxbqvBifbRhPpgY451USpfhFBKN4r0J5X/i9gr9HEeAsxXFzkWH8wShukhhM1DEc19JsPxOPL6Br8Pcbh+vN+icKTR3iYgD525cjh7HrZxfDuZWoMISolauZIgDZdai3BKCdBbsQ69uw752GojQad3tkEt9iGYLfCzjmBWy/A2ivNlxqVUhINfZSD0ewufUiJafWgHMF6nvZ2LWbeJgjjtvr61nYb9/X/wXllleIXJuJZgDStQrRbmOWUb7XY/lvbHwGM+Ka2r8Az2NoYBoizasAYgYAGYPG1p3nYgIkd8J+Z7hmGhei3JVo8DeifI/0G3X0MqA8rboGtvkMCbanAr4Elvcgqu4xIATnvxD1bgdME3mbGy+uwccN2di24Xz9cfwkXCOyDZqO67oF1oq/4LB9Pep/BmX/xr6pWA7iY3myN1zTEpSvxvJ29uPUWyRqg/pvwPZLRn2Tca39+Fw4/kzYg9j3MspewfJh+NfOhIjrPAq+f0LZc1yOz7kJ/ku5zsz0M0QXYP9TON+/sBzOKTsfh3rawe6B78uwGfi7HxkvWJs6MKGxPILGshUNahka3hw0oiAa+3eAZSj2z8e+VfDJvLLE45TR6IpQ/iZgrX1HE/uOh/8E+PK0MF8yBPAZzzNSoI7rcDz3KSvhtwMN/GuU3Vg3fYfPKbAS7N+AOi4FXLVv43CkQt03oTyK4wtQz1z4lKPONPafh/UTcM4klhtw/MdYrkeZCt9bcB0u+H+K9QTsC9gM+P4Gfq/Bj30WwT6HbUH9szliYvkyrpFnbfwSPp/weeG/DNaevwywj38XNobyJXwszhWDfcGfGWWXwb8Cy69Q9gH8RKy/y31yrF+Jeitx/vVY/wjHX2h8RFOmGhai19gtABKN7zdoNBxxBnDDQkN7C43rLpQnsJ35VW6sD+VtRJ8/Zg6GdhK1RsN7A/t3vaq3A/XcVYH+NfavYcP2QDTYKAOLdJp/KiMNu3dXhGThXH/AvmU4rwpbDP+buZy/FFBHMY5dCCA7ckSG76Ow7YhWA3G+k3HNaWz/maMulv1wvWEGxIigi3H+N1F2DHxbYfsW+OyAzwiOevyL6dj/Kc49h/usONfbiIrrEPm6GmD9FX8fhnAIjr0Ufklc33j4tdlIdCyu6zXsW1qC68Bx78G+QpbQCT6tcd7RKNewfRF8BuOzC6jjcnQnWuKLZ4+X0E2Z2kNoOOPQANehcdbOnICGNR8NqwyN/HQ0tK/QoN9BI/Ogsb7J22hktY9/0HAvgm81TMdxOi/hV8qNFMddhvJK7P8Sx6SxP+PDkKJM4H6vUU1GnA7C/1bYUlxXFfzvA0T9GCgcN8xw45tr9+DatqDOCwDeySiLwyczux2Obcnng81nSODzBfz5N1Ezgt8klO3k6+Nt7rfiPB/hfB8zoDjmLUC2nH9Fnctx/Kn44uGofCeOy/wWLOqofeMJf7vMoySB6GwcuwLlxbi2WfCZhfWFqIsj/VAAfRV8y3G9TfqBKVNHqAxA1yIy7XqH0oKGtQQNshiNLB92FxpXBRrqSDS2jWh89xt+GaH8POxPMnRowPw7NTq2GcApqKcF6p/Pczvh+NpynogN6yVo1HudToUfs+Cc/IbRKqxfgWvZjLruM4r5C+Su+oCi/Eouw3FHYT/3O/nu8VFY8nrtTSL4TcD2ToCf6VdyWov6P6gD6JtYX8kRl8vh2xnXW4BruQP1jkWdSSxP5TIWPut0+C8D0D2wvgT18wRzj+G4MbjGv2N5L9Jf/uK5Bn/nIMrONw41ZWr/QuOaiIbDfcfzAVl7bljYx88ueV6fTFTDeiHKtqIBrkND2+03QdYSedF4J/MxPCMFw8mwonHGEDmGoEG/hXQu8wtwOE8GTiwFHHMt9y+5Dk5jAcYNiL6/wfFtcQ3cXwvjXF/gi6Mr1jkyrUOdfXHcCVh/Ff4M+UCc4xTs3wzfwVwXzvMr7FuJfZ/jM/l5Cd8C1Nsd/seh7EYc/z3sGVgH7OsNnzKcYz4Dinre5c8Jv8ys7Sjris9Viv138I0q1M8Tl7+J8o6wnjhuJWwVp7tYPsvlqPdm+JwI64b1KzilxTVcj7+LhGsawPWaMtUooUHdgwYowBYAno+xzTdr/s0NzHDhqPM4+pp8w+eFvT2bRcMOoCHzXdXFaNwR1FHJMKIx8k2SGAOLfQk04DLU9QZ8d/sBJwYNPmtwDV/D5mG9AL7fwDfT10X5H3FMMVLNpaj/Xez/EtdSBrDPg297lJXgXJlnpkhdOWrOwfZ7fK1Y3oFjKhDFF+P6pqFf2RH+0/BlUIpzzcG+D3GNm1D3DE53cZ0vYX3erufCOMdp2F6C67mRH8vg3BO5PuzjG2jvYv9ybH+0BtkCAO6C6+LrX4+/5Qewhdh+D4AyvFfgmFVmimsqK3Fqi8ZzHhrmQBg/7jiX70gaxZnnjmiIY2ApjiDG7r0KMByLBtkHAAyFPYntV9AgZ2J9LI6/FI27O/btMXwRkLTEec9BQ/8frA9BHb/nCGUUsyyo43SU882W/ljvCr+z+Di+2YI0uA+DyY6csuKc3dift420tTeguQjgnmXsCxjn+x2Xoc7TAU8nBhr7O2F/9103sLjvDZB7AuhjeRt/Lzfq7svXwteA405BeTdcR+a5J0de1NGP/5Z8TlxLd5RxvW04Q8DfIZ/9TJk6YKHhX4hG/T7AErB8kR9bGEX71a4H8my7UllTpkzlUIh2HK34ud+9u/pkpkyZOkSEyJcZCG5smjJlypQpU6ZMmTJlypQpU6ZMmTJlypQpU6ZMmTJlypQpU6ZMmTJlypQpU6ZMmTJlypQpU6ZM/VJF9P/4VLlQmJjGNAAAAABJRU5ErkJggg==&quot; style=&quot;font-size: 10px;&quot;&gt;" style="text;html=1;strokeColor=none;fillColor=none;align=center;verticalAlign=middle;whiteSpace=wrap;rounded=0;fontSize=10;" parent="1" vertex="1">
          <mxGeometry x="110" y="239" width="10" height="10" as="geometry" />
        </mxCell>
        <mxCell id="Bnk67_aWibF8yN_9XxKm-9" value="&lt;font style=&quot;font-size: 14px;&quot;&gt;PLARD Consulta de saldos y movimientos desde ATM Santander&lt;/font&gt;" style="shape=umlFrame;whiteSpace=wrap;html=1;pointerEvents=0;recursiveResize=0;container=1;collapsible=0;width=470;height=38;fontStyle=1;fontSize=13;strokeColor=#000000;strokeWidth=2;" parent="1" vertex="1">
          <mxGeometry x="10" y="282" width="2270" height="2600" as="geometry" />
        </mxCell>
        <mxCell id="Bnk67_aWibF8yN_9XxKm-18" value="&lt;b&gt;Cliente Santander&lt;/b&gt;" style="shape=umlLifeline;perimeter=lifelinePerimeter;whiteSpace=wrap;html=1;container=1;dropTarget=0;collapsible=0;recursiveResize=0;outlineConnect=0;portConstraint=eastwest;newEdgeStyle={&quot;edgeStyle&quot;:&quot;elbowEdgeStyle&quot;,&quot;elbow&quot;:&quot;vertical&quot;,&quot;curved&quot;:0,&quot;rounded&quot;:0};align=center;" parent="Bnk67_aWibF8yN_9XxKm-9" vertex="1">
          <mxGeometry x="29" y="76" width="161" height="2524" as="geometry" />
        </mxCell>
        <mxCell id="Bnk67_aWibF8yN_9XxKm-22" value="&lt;b&gt;&amp;lt;&amp;lt;Componente&amp;gt;&amp;gt;&amp;nbsp;&lt;/b&gt;&lt;div&gt;&lt;b&gt;OAS Splitter&lt;/b&gt;&lt;/div&gt;" style="shape=umlLifeline;perimeter=lifelinePerimeter;whiteSpace=wrap;html=1;container=1;dropTarget=0;collapsible=0;recursiveResize=0;outlineConnect=0;portConstraint=eastwest;newEdgeStyle={&quot;edgeStyle&quot;:&quot;elbowEdgeStyle&quot;,&quot;elbow&quot;:&quot;vertical&quot;,&quot;curved&quot;:0,&quot;rounded&quot;:0};align=center;" parent="Bnk67_aWibF8yN_9XxKm-9" vertex="1">
          <mxGeometry x="429" y="77" width="160" height="2523" as="geometry" />
        </mxCell>
        <mxCell id="Bnk67_aWibF8yN_9XxKm-161" value="&lt;div&gt;&lt;b&gt;&amp;lt;&amp;lt;Canal&amp;gt;&amp;gt;&lt;/b&gt;&lt;/div&gt;&lt;b&gt;Cajero AutomÃ¡tico&lt;/b&gt;" style="shape=umlLifeline;perimeter=lifelinePerimeter;whiteSpace=wrap;html=1;container=1;dropTarget=0;collapsible=0;recursiveResize=0;outlineConnect=0;portConstraint=eastwest;newEdgeStyle={&quot;edgeStyle&quot;:&quot;elbowEdgeStyle&quot;,&quot;elbow&quot;:&quot;vertical&quot;,&quot;curved&quot;:0,&quot;rounded&quot;:0};align=center;" parent="Bnk67_aWibF8yN_9XxKm-9" vertex="1">
          <mxGeometry x="229" y="76" width="161" height="2524" as="geometry" />
        </mxCell>
        <mxCell id="ToUPSf5seXOrwuXV1P-5-8" value="&lt;b&gt;&amp;lt;&amp;lt;Autorizador&amp;gt;&amp;gt;&lt;/b&gt;&lt;div&gt;&lt;b style=&quot;background-color: initial;&quot;&gt;Stratos&amp;nbsp;&lt;span style=&quot;background-color: initial;&quot;&gt;On-Premise&lt;/span&gt;&lt;/b&gt;&lt;/div&gt;" style="shape=umlLifeline;perimeter=lifelinePerimeter;whiteSpace=wrap;html=1;container=1;dropTarget=0;collapsible=0;recursiveResize=0;outlineConnect=0;portConstraint=eastwest;newEdgeStyle={&quot;edgeStyle&quot;:&quot;elbowEdgeStyle&quot;,&quot;elbow&quot;:&quot;vertical&quot;,&quot;curved&quot;:0,&quot;rounded&quot;:0};align=center;" parent="1" vertex="1">
          <mxGeometry x="917" y="360" width="160" height="2520" as="geometry" />
        </mxCell>
        <mxCell id="ToUPSf5seXOrwuXV1P-5-10" value="&lt;b&gt;&amp;lt;&amp;lt; API&amp;gt;&amp;gt;&lt;/b&gt;&lt;div&gt;&lt;b&gt;API Gluon&lt;/b&gt;&lt;/div&gt;" style="shape=umlLifeline;perimeter=lifelinePerimeter;whiteSpace=wrap;html=1;container=1;dropTarget=0;collapsible=0;recursiveResize=0;outlineConnect=0;portConstraint=eastwest;newEdgeStyle={&quot;edgeStyle&quot;:&quot;elbowEdgeStyle&quot;,&quot;elbow&quot;:&quot;vertical&quot;,&quot;curved&quot;:0,&quot;rounded&quot;:0};align=center;" parent="1" vertex="1">
          <mxGeometry x="1158" y="359" width="160" height="2521" as="geometry" />
        </mxCell>
        <mxCell id="ToUPSf5seXOrwuXV1P-5-13" value="" style="html=1;points=[[0,0,0,0,5],[0,1,0,0,-5],[1,0,0,0,5],[1,1,0,0,-5]];perimeter=orthogonalPerimeter;outlineConnect=0;targetShapes=umlLifeline;portConstraint=eastwest;newEdgeStyle={&quot;curved&quot;:0,&quot;rounded&quot;:0};" parent="1" vertex="1">
          <mxGeometry x="115" y="479" width="10" height="2361" as="geometry" />
        </mxCell>
        <mxCell id="ToUPSf5seXOrwuXV1P-5-14" value="" style="html=1;points=[[0,0,0,0,5],[0,1,0,0,-5],[1,0,0,0,5],[1,1,0,0,-5]];perimeter=orthogonalPerimeter;outlineConnect=0;targetShapes=umlLifeline;portConstraint=eastwest;newEdgeStyle={&quot;curved&quot;:0,&quot;rounded&quot;:0};" parent="1" vertex="1">
          <mxGeometry x="315" y="478" width="10" height="2242" as="geometry" />
        </mxCell>
        <mxCell id="ToUPSf5seXOrwuXV1P-5-18" value="" style="html=1;points=[[0,0,0,0,5],[0,1,0,0,-5],[1,0,0,0,5],[1,1,0,0,-5]];perimeter=orthogonalPerimeter;outlineConnect=0;targetShapes=umlLifeline;portConstraint=eastwest;newEdgeStyle={&quot;curved&quot;:0,&quot;rounded&quot;:0};" parent="1" vertex="1">
          <mxGeometry x="515" y="518" width="10" height="2122" as="geometry" />
        </mxCell>
        <mxCell id="ToUPSf5seXOrwuXV1P-5-17" value="" style="endArrow=classic;html=1;rounded=0;" parent="1" target="Bnk67_aWibF8yN_9XxKm-22" edge="1">
          <mxGeometry width="50" height="50" relative="1" as="geometry">
            <mxPoint x="327" y="518" as="sourcePoint" />
            <mxPoint x="512.0526315789471" y="518.0000000000005" as="targetPoint" />
          </mxGeometry>
        </mxCell>
        <mxCell id="ToUPSf5seXOrwuXV1P-5-12" value="" style="endArrow=classic;html=1;rounded=0;" parent="1" target="Bnk67_aWibF8yN_9XxKm-161" edge="1">
          <mxGeometry width="50" height="50" relative="1" as="geometry">
            <mxPoint x="120" y="480" as="sourcePoint" />
            <mxPoint x="313.5526315789475" y="480" as="targetPoint" />
          </mxGeometry>
        </mxCell>
        <mxCell id="ToUPSf5seXOrwuXV1P-5-22" value="" style="html=1;points=[[0,0,0,0,5],[0,1,0,0,-5],[1,0,0,0,5],[1,1,0,0,-5]];perimeter=orthogonalPerimeter;outlineConnect=0;targetShapes=umlLifeline;portConstraint=eastwest;newEdgeStyle={&quot;curved&quot;:0,&quot;rounded&quot;:0};" parent="1" vertex="1">
          <mxGeometry x="753" y="676" width="10" height="1164" as="geometry" />
        </mxCell>
        <mxCell id="ToUPSf5seXOrwuXV1P-5-19" value="" style="endArrow=classic;html=1;rounded=0;" parent="1" target="ToUPSf5seXOrwuXV1P-5-22" edge="1">
          <mxGeometry width="50" height="50" relative="1" as="geometry">
            <mxPoint x="527" y="679" as="sourcePoint" />
            <mxPoint x="1118" y="679" as="targetPoint" />
          </mxGeometry>
        </mxCell>
        <mxCell id="ToUPSf5seXOrwuXV1P-5-27" value="" style="html=1;points=[[0,0,0,0,5],[0,1,0,0,-5],[1,0,0,0,5],[1,1,0,0,-5]];perimeter=orthogonalPerimeter;outlineConnect=0;targetShapes=umlLifeline;portConstraint=eastwest;newEdgeStyle={&quot;curved&quot;:0,&quot;rounded&quot;:0};" parent="1" vertex="1">
          <mxGeometry x="1234" y="838" width="10" height="362" as="geometry" />
        </mxCell>
        <mxCell id="ToUPSf5seXOrwuXV1P-5-28" value="" style="endArrow=classic;html=1;rounded=0;" parent="1" target="ToUPSf5seXOrwuXV1P-5-10" edge="1">
          <mxGeometry width="50" height="50" relative="1" as="geometry">
            <mxPoint x="762" y="840" as="sourcePoint" />
            <mxPoint x="1000" y="840" as="targetPoint" />
          </mxGeometry>
        </mxCell>
        <mxCell id="ToUPSf5seXOrwuXV1P-5-31" value="" style="html=1;points=[[0,0,0,0,5],[0,1,0,0,-5],[1,0,0,0,5],[1,1,0,0,-5]];perimeter=orthogonalPerimeter;outlineConnect=0;targetShapes=umlLifeline;portConstraint=eastwest;newEdgeStyle={&quot;curved&quot;:0,&quot;rounded&quot;:0};" parent="1" vertex="1">
          <mxGeometry x="1714" y="920" width="10" height="200" as="geometry" />
        </mxCell>
        <mxCell id="ToUPSf5seXOrwuXV1P-5-32" value="" style="endArrow=classic;html=1;rounded=0;" parent="1" edge="1">
          <mxGeometry width="50" height="50" relative="1" as="geometry">
            <mxPoint x="1245" y="919" as="sourcePoint" />
            <mxPoint x="1717.5" y="919" as="targetPoint" />
          </mxGeometry>
        </mxCell>
        <mxCell id="ToUPSf5seXOrwuXV1P-5-34" style="edgeStyle=orthogonalEdgeStyle;rounded=0;orthogonalLoop=1;jettySize=auto;html=1;curved=0;" parent="1" edge="1">
          <mxGeometry relative="1" as="geometry">
            <mxPoint x="764" y="720" as="sourcePoint" />
            <mxPoint x="764" y="755.0344827586207" as="targetPoint" />
            <Array as="points">
              <mxPoint x="820" y="720" />
              <mxPoint x="820" y="755" />
            </Array>
          </mxGeometry>
        </mxCell>
        <mxCell id="ToUPSf5seXOrwuXV1P-5-35" value="&lt;span style=&quot;font-size: 10px;&quot;&gt;Valida trama de consulta&amp;nbsp;&lt;/span&gt;&lt;div&gt;&lt;span style=&quot;font-size: 10px;&quot;&gt;saldos y movimientos&lt;/span&gt;&lt;/div&gt;" style="edgeLabel;html=1;align=center;verticalAlign=middle;resizable=0;points=[];" parent="ToUPSf5seXOrwuXV1P-5-34" vertex="1" connectable="0">
          <mxGeometry x="-0.0246" y="2" relative="1" as="geometry">
            <mxPoint x="-10" as="offset" />
          </mxGeometry>
        </mxCell>
        <mxCell id="ToUPSf5seXOrwuXV1P-5-40" style="edgeStyle=orthogonalEdgeStyle;rounded=0;orthogonalLoop=1;jettySize=auto;html=1;curved=0;" parent="1" edge="1">
          <mxGeometry relative="1" as="geometry">
            <mxPoint x="1726" y="1000" as="sourcePoint" />
            <mxPoint x="1726" y="1035" as="targetPoint" />
            <Array as="points">
              <mxPoint x="1782" y="1000" />
              <mxPoint x="1782" y="1035" />
            </Array>
          </mxGeometry>
        </mxCell>
        <mxCell id="ToUPSf5seXOrwuXV1P-5-43" value="Retorna el balance de&amp;nbsp;&lt;span style=&quot;background-color: initial;&quot;&gt;la CC&lt;/span&gt;" style="text;html=1;align=center;verticalAlign=middle;whiteSpace=wrap;rounded=0;" parent="1" vertex="1">
          <mxGeometry x="1290" y="1095" width="390" height="30" as="geometry" />
        </mxCell>
        <mxCell id="ToUPSf5seXOrwuXV1P-5-44" value="Solicita el balance de&amp;nbsp;&lt;span style=&quot;background-color: initial;&quot;&gt;la CC&lt;/span&gt;" style="text;html=1;align=center;verticalAlign=middle;whiteSpace=wrap;rounded=0;" parent="1" vertex="1">
          <mxGeometry x="1298" y="897" width="380" height="30" as="geometry" />
        </mxCell>
        <mxCell id="ToUPSf5seXOrwuXV1P-5-45" value="" style="endArrow=open;html=1;rounded=0;dashed=1;endFill=0;" parent="1" source="ToUPSf5seXOrwuXV1P-5-10" edge="1">
          <mxGeometry width="50" height="50" relative="1" as="geometry">
            <mxPoint x="994" y="1200" as="sourcePoint" />
            <mxPoint x="763" y="1200" as="targetPoint" />
          </mxGeometry>
        </mxCell>
        <mxCell id="ToUPSf5seXOrwuXV1P-5-46" value="&lt;font style=&quot;font-size: 11px;&quot;&gt;Retorna balance&amp;nbsp;&lt;/font&gt;&lt;span style=&quot;font-size: 11px; background-color: initial;&quot;&gt;de la CC&lt;/span&gt;" style="text;html=1;align=center;verticalAlign=middle;whiteSpace=wrap;rounded=0;" parent="1" vertex="1">
          <mxGeometry x="913" y="1174" width="169" height="30" as="geometry" />
        </mxCell>
        <mxCell id="ToUPSf5seXOrwuXV1P-5-47" value="&lt;span style=&quot;text-align: left;&quot;&gt;&lt;font style=&quot;font-size: 11px;&quot;&gt;Solicita la consulta del balance de la CC.&lt;/font&gt;&lt;/span&gt;" style="text;html=1;align=center;verticalAlign=middle;whiteSpace=wrap;rounded=0;" parent="1" vertex="1">
          <mxGeometry x="921" y="807" width="203" height="30" as="geometry" />
        </mxCell>
        <mxCell id="ToUPSf5seXOrwuXV1P-5-48" value="&lt;span style=&quot;text-align: left; font-size: 11px;&quot;&gt;Direcciona&amp;nbsp;trama de consulta de Saldos y Movimientos. a Stratos Plard&lt;/span&gt;" style="text;html=1;align=center;verticalAlign=middle;whiteSpace=wrap;rounded=0;" parent="1" vertex="1">
          <mxGeometry x="540" y="644" width="192" height="30" as="geometry" />
        </mxCell>
        <mxCell id="ToUPSf5seXOrwuXV1P-5-49" value="&lt;span style=&quot;text-align: left;&quot;&gt;&lt;font style=&quot;font-size: 10px;&quot;&gt;Prepara y envÃ­a trama de consulta de Saldos y Movimientos.&lt;/font&gt;&lt;/span&gt;" style="text;html=1;align=center;verticalAlign=middle;whiteSpace=wrap;rounded=0;" parent="1" vertex="1">
          <mxGeometry x="339" y="482" width="169" height="30" as="geometry" />
        </mxCell>
        <mxCell id="ToUPSf5seXOrwuXV1P-5-50" value="&lt;span style=&quot;text-align: left;&quot;&gt;&lt;font style=&quot;font-size: 10px;&quot;&gt;Selecciona Consulta de Movimientos&lt;/font&gt;&lt;/span&gt;" style="text;html=1;align=center;verticalAlign=middle;whiteSpace=wrap;rounded=0;" parent="1" vertex="1">
          <mxGeometry x="139" y="453" width="169" height="30" as="geometry" />
        </mxCell>
        <mxCell id="ToUPSf5seXOrwuXV1P-5-56" value="" style="endArrow=open;html=1;rounded=0;dashed=1;endFill=0;" parent="1" edge="1">
          <mxGeometry width="50" height="50" relative="1" as="geometry">
            <mxPoint x="516" y="2639" as="sourcePoint" />
            <mxPoint x="318.3333333333335" y="2639" as="targetPoint" />
          </mxGeometry>
        </mxCell>
        <mxCell id="ToUPSf5seXOrwuXV1P-5-57" value="&lt;font style=&quot;font-size: 11px;&quot;&gt;Retorna saldos y&amp;nbsp;&lt;/font&gt;&lt;span style=&quot;background-color: initial; font-size: 11px;&quot;&gt;movimientos&amp;nbsp;&lt;/span&gt;&lt;div&gt;&lt;span style=&quot;background-color: initial; font-size: 11px;&quot;&gt;de la CC&amp;nbsp;&lt;/span&gt;&lt;span style=&quot;background-color: initial; font-size: 11px;&quot;&gt;asociada a la TDD&lt;/span&gt;&lt;/div&gt;" style="text;html=1;align=center;verticalAlign=middle;whiteSpace=wrap;rounded=0;" parent="1" vertex="1">
          <mxGeometry x="340" y="2605" width="169" height="30" as="geometry" />
        </mxCell>
        <mxCell id="ToUPSf5seXOrwuXV1P-5-60" value="" style="endArrow=open;html=1;rounded=0;dashed=1;endFill=0;" parent="1" edge="1">
          <mxGeometry width="50" height="50" relative="1" as="geometry">
            <mxPoint x="318" y="2720" as="sourcePoint" />
            <mxPoint x="121" y="2720" as="targetPoint" />
          </mxGeometry>
        </mxCell>
        <mxCell id="ToUPSf5seXOrwuXV1P-5-61" value="Muestra saldos y&amp;nbsp;movimientos&lt;div&gt;de la CC asociada a la TDD&lt;/div&gt;" style="text;whiteSpace=wrap;html=1;" parent="1" vertex="1">
          <mxGeometry x="139" y="2683" width="170" height="37" as="geometry" />
        </mxCell>
        <mxCell id="ToUPSf5seXOrwuXV1P-5-62" style="edgeStyle=orthogonalEdgeStyle;rounded=0;orthogonalLoop=1;jettySize=auto;html=1;curved=0;" parent="1" edge="1">
          <mxGeometry relative="1" as="geometry">
            <mxPoint x="127" y="2800" as="sourcePoint" />
            <mxPoint x="127" y="2835.0344827586205" as="targetPoint" />
            <Array as="points">
              <mxPoint x="183" y="2800" />
              <mxPoint x="183" y="2835" />
            </Array>
          </mxGeometry>
        </mxCell>
        <mxCell id="ToUPSf5seXOrwuXV1P-5-63" value="&lt;span style=&quot;font-size: 10px;&quot;&gt;Visualiza saldos y&amp;nbsp;&lt;/span&gt;&lt;div&gt;&lt;span style=&quot;font-size: 10px;&quot;&gt;movimientos&lt;/span&gt;&lt;/div&gt;" style="edgeLabel;html=1;align=center;verticalAlign=middle;resizable=0;points=[];" parent="ToUPSf5seXOrwuXV1P-5-62" vertex="1" connectable="0">
          <mxGeometry x="-0.0246" y="2" relative="1" as="geometry">
            <mxPoint as="offset" />
          </mxGeometry>
        </mxCell>
        <mxCell id="UOhI1Jb9BPqGJdpc2Sex-2" value="" style="endArrow=open;html=1;rounded=0;dashed=1;endFill=0;" parent="1" edge="1">
          <mxGeometry width="50" height="50" relative="1" as="geometry">
            <mxPoint x="1717.5" y="1120" as="sourcePoint" />
            <mxPoint x="1236.0714285714284" y="1120" as="targetPoint" />
          </mxGeometry>
        </mxCell>
        <mxCell id="UOhI1Jb9BPqGJdpc2Sex-3" value="" style="endArrow=classic;html=1;rounded=0;" parent="1" edge="1">
          <mxGeometry width="50" height="50" relative="1" as="geometry">
            <mxPoint x="1237.071428571428" y="1360" as="sourcePoint" />
            <mxPoint x="1717.5" y="1360" as="targetPoint" />
          </mxGeometry>
        </mxCell>
        <mxCell id="UOhI1Jb9BPqGJdpc2Sex-4" value="Solicita movimientos de&amp;nbsp;&lt;span style=&quot;background-color: initial;&quot;&gt;la CC&lt;/span&gt;" style="text;html=1;align=center;verticalAlign=middle;whiteSpace=wrap;rounded=0;" parent="1" vertex="1">
          <mxGeometry x="1384" y="1335" width="169" height="30" as="geometry" />
        </mxCell>
        <mxCell id="UOhI1Jb9BPqGJdpc2Sex-5" style="edgeStyle=orthogonalEdgeStyle;rounded=0;orthogonalLoop=1;jettySize=auto;html=1;curved=0;" parent="1" edge="1">
          <mxGeometry relative="1" as="geometry">
            <mxPoint x="1724" y="1439" as="sourcePoint" />
            <mxPoint x="1724" y="1474" as="targetPoint" />
            <Array as="points">
              <mxPoint x="1780" y="1439" />
              <mxPoint x="1780" y="1474" />
            </Array>
          </mxGeometry>
        </mxCell>
        <mxCell id="UOhI1Jb9BPqGJdpc2Sex-8" value="Retorna movimientos de&amp;nbsp;&lt;span style=&quot;background-color: initial;&quot;&gt;la CC&lt;/span&gt;" style="text;html=1;align=center;verticalAlign=middle;whiteSpace=wrap;rounded=0;" parent="1" vertex="1">
          <mxGeometry x="1390" y="1535" width="169" height="30" as="geometry" />
        </mxCell>
        <mxCell id="UOhI1Jb9BPqGJdpc2Sex-9" value="" style="html=1;points=[[0,0,0,0,5],[0,1,0,0,-5],[1,0,0,0,5],[1,1,0,0,-5]];perimeter=orthogonalPerimeter;outlineConnect=0;targetShapes=umlLifeline;portConstraint=eastwest;newEdgeStyle={&quot;curved&quot;:0,&quot;rounded&quot;:0};" parent="1" vertex="1">
          <mxGeometry x="1235" y="1279" width="10" height="361" as="geometry" />
        </mxCell>
        <mxCell id="UOhI1Jb9BPqGJdpc2Sex-10" value="" style="endArrow=classic;html=1;rounded=0;" parent="1" target="ToUPSf5seXOrwuXV1P-5-10" edge="1">
          <mxGeometry width="50" height="50" relative="1" as="geometry">
            <mxPoint x="762" y="1279" as="sourcePoint" />
            <mxPoint x="904.5" y="1279" as="targetPoint" />
          </mxGeometry>
        </mxCell>
        <mxCell id="UOhI1Jb9BPqGJdpc2Sex-11" value="" style="html=1;points=[[0,0,0,0,5],[0,1,0,0,-5],[1,0,0,0,5],[1,1,0,0,-5]];perimeter=orthogonalPerimeter;outlineConnect=0;targetShapes=umlLifeline;portConstraint=eastwest;newEdgeStyle={&quot;curved&quot;:0,&quot;rounded&quot;:0};" parent="1" vertex="1">
          <mxGeometry x="1714" y="1357" width="10" height="200" as="geometry" />
        </mxCell>
        <mxCell id="UOhI1Jb9BPqGJdpc2Sex-7" value="" style="endArrow=open;html=1;rounded=0;dashed=1;endFill=0;" parent="1" edge="1">
          <mxGeometry width="50" height="50" relative="1" as="geometry">
            <mxPoint x="1717.5" y="1560" as="sourcePoint" />
            <mxPoint x="1236.8333333333335" y="1560" as="targetPoint" />
          </mxGeometry>
        </mxCell>
        <mxCell id="UOhI1Jb9BPqGJdpc2Sex-12" value="&lt;span style=&quot;text-align: left;&quot;&gt;&lt;font style=&quot;font-size: 11px;&quot;&gt;EnvÃ­a trama de consulta de movimientos de la CC.&lt;/font&gt;&lt;/span&gt;" style="text;html=1;align=center;verticalAlign=middle;whiteSpace=wrap;rounded=0;" parent="1" vertex="1">
          <mxGeometry x="917" y="1249" width="169" height="30" as="geometry" />
        </mxCell>
        <mxCell id="UOhI1Jb9BPqGJdpc2Sex-14" value="" style="endArrow=open;html=1;rounded=0;dashed=1;endFill=0;" parent="1" source="ToUPSf5seXOrwuXV1P-5-10" edge="1">
          <mxGeometry width="50" height="50" relative="1" as="geometry">
            <mxPoint x="1004" y="1640" as="sourcePoint" />
            <mxPoint x="761" y="1640" as="targetPoint" />
          </mxGeometry>
        </mxCell>
        <mxCell id="UOhI1Jb9BPqGJdpc2Sex-15" value="Retorna movimientos de&amp;nbsp;&lt;span style=&quot;background-color: initial;&quot;&gt;la CC&lt;/span&gt;" style="text;html=1;align=center;verticalAlign=middle;whiteSpace=wrap;rounded=0;" parent="1" vertex="1">
          <mxGeometry x="910" y="1612" width="169" height="30" as="geometry" />
        </mxCell>
        <mxCell id="UOhI1Jb9BPqGJdpc2Sex-26" value="&lt;span style=&quot;text-align: left; font-size: 11px;&quot;&gt;Solicita consulta de saldos y movimientos a PAMPA&lt;/span&gt;" style="text;html=1;align=center;verticalAlign=middle;whiteSpace=wrap;rounded=0;" parent="1" vertex="1">
          <mxGeometry x="1158" y="2007" width="169" height="30" as="geometry" />
        </mxCell>
        <mxCell id="UOhI1Jb9BPqGJdpc2Sex-29" value="" style="html=1;points=[[0,0,0,0,5],[0,1,0,0,-5],[1,0,0,0,5],[1,1,0,0,-5]];perimeter=orthogonalPerimeter;outlineConnect=0;targetShapes=umlLifeline;portConstraint=eastwest;newEdgeStyle={&quot;curved&quot;:0,&quot;rounded&quot;:0};" parent="1" vertex="1">
          <mxGeometry x="1475" y="2036" width="10" height="362" as="geometry" />
        </mxCell>
        <mxCell id="UOhI1Jb9BPqGJdpc2Sex-25" value="" style="endArrow=classic;html=1;rounded=0;" parent="1" edge="1">
          <mxGeometry width="50" height="50" relative="1" as="geometry">
            <mxPoint x="1007" y="2038" as="sourcePoint" />
            <mxPoint x="1480.5" y="2038" as="targetPoint" />
          </mxGeometry>
        </mxCell>
        <mxCell id="UOhI1Jb9BPqGJdpc2Sex-31" value="" style="html=1;points=[[0,0,0,0,5],[0,1,0,0,-5],[1,0,0,0,5],[1,1,0,0,-5]];perimeter=orthogonalPerimeter;outlineConnect=0;targetShapes=umlLifeline;portConstraint=eastwest;newEdgeStyle={&quot;curved&quot;:0,&quot;rounded&quot;:0};" parent="1" vertex="1">
          <mxGeometry x="1716" y="2118" width="10" height="200" as="geometry" />
        </mxCell>
        <mxCell id="UOhI1Jb9BPqGJdpc2Sex-32" style="edgeStyle=orthogonalEdgeStyle;rounded=0;orthogonalLoop=1;jettySize=auto;html=1;curved=0;" parent="1" edge="1">
          <mxGeometry relative="1" as="geometry">
            <mxPoint x="1727" y="2198" as="sourcePoint" />
            <mxPoint x="1727" y="2233" as="targetPoint" />
            <Array as="points">
              <mxPoint x="1783" y="2198" />
              <mxPoint x="1783" y="2233" />
            </Array>
          </mxGeometry>
        </mxCell>
        <mxCell id="UOhI1Jb9BPqGJdpc2Sex-33" value="&lt;span style=&quot;font-size: 10px;&quot;&gt;Consulta balance y&amp;nbsp;&lt;/span&gt;&lt;div&gt;&lt;span style=&quot;font-size: 10px;&quot;&gt;,movimientos de la CC&lt;/span&gt;&lt;/div&gt;" style="edgeLabel;html=1;align=center;verticalAlign=middle;resizable=0;points=[];" parent="UOhI1Jb9BPqGJdpc2Sex-32" vertex="1" connectable="0">
          <mxGeometry x="-0.0246" y="2" relative="1" as="geometry">
            <mxPoint x="10" as="offset" />
          </mxGeometry>
        </mxCell>
        <mxCell id="UOhI1Jb9BPqGJdpc2Sex-30" value="" style="endArrow=classic;html=1;rounded=0;" parent="1" edge="1">
          <mxGeometry width="50" height="50" relative="1" as="geometry">
            <mxPoint x="1484" y="2119" as="sourcePoint" />
            <mxPoint x="1723" y="2119" as="targetPoint" />
          </mxGeometry>
        </mxCell>
        <mxCell id="UOhI1Jb9BPqGJdpc2Sex-34" value="" style="endArrow=open;html=1;rounded=0;dashed=1;endFill=0;" parent="1" edge="1">
          <mxGeometry width="50" height="50" relative="1" as="geometry">
            <mxPoint x="1716" y="2318" as="sourcePoint" />
            <mxPoint x="1473" y="2318" as="targetPoint" />
          </mxGeometry>
        </mxCell>
        <mxCell id="UOhI1Jb9BPqGJdpc2Sex-35" value="" style="endArrow=open;html=1;rounded=0;dashed=1;endFill=0;" parent="1" edge="1">
          <mxGeometry width="50" height="50" relative="1" as="geometry">
            <mxPoint x="1483" y="2398" as="sourcePoint" />
            <mxPoint x="1001.8333333333335" y="2398" as="targetPoint" />
          </mxGeometry>
        </mxCell>
        <mxCell id="UOhI1Jb9BPqGJdpc2Sex-36" value="&lt;span style=&quot;text-align: left; font-size: 11px;&quot;&gt;Solicita consulta de saldos y movimientos&lt;/span&gt;" style="text;html=1;align=center;verticalAlign=middle;whiteSpace=wrap;rounded=0;" parent="1" vertex="1">
          <mxGeometry x="1533" y="2088" width="169" height="30" as="geometry" />
        </mxCell>
        <mxCell id="UOhI1Jb9BPqGJdpc2Sex-37" value="&lt;span style=&quot;text-align: left; font-size: 11px;&quot;&gt;Retorna consulta de saldos y movimientos&lt;/span&gt;" style="text;html=1;align=center;verticalAlign=middle;whiteSpace=wrap;rounded=0;" parent="1" vertex="1">
          <mxGeometry x="1523" y="2288" width="169" height="30" as="geometry" />
        </mxCell>
        <mxCell id="UOhI1Jb9BPqGJdpc2Sex-38" value="&lt;span style=&quot;font-size: 11px; text-align: left;&quot;&gt;PAMA retorna consulta de saldos y movimientos&lt;/span&gt;" style="text;html=1;align=center;verticalAlign=middle;whiteSpace=wrap;rounded=0;" parent="1" vertex="1">
          <mxGeometry x="1153" y="2362" width="169" height="30" as="geometry" />
        </mxCell>
        <mxCell id="UOhI1Jb9BPqGJdpc2Sex-47" value="" style="html=1;points=[[0,0,0,0,5],[0,1,0,0,-5],[1,0,0,0,5],[1,1,0,0,-5]];perimeter=orthogonalPerimeter;outlineConnect=0;targetShapes=umlLifeline;portConstraint=eastwest;newEdgeStyle={&quot;curved&quot;:0,&quot;rounded&quot;:0};" parent="1" vertex="1">
          <mxGeometry x="992" y="1918" width="10" height="602" as="geometry" />
        </mxCell>
        <mxCell id="UOhI1Jb9BPqGJdpc2Sex-48" style="edgeStyle=orthogonalEdgeStyle;rounded=0;orthogonalLoop=1;jettySize=auto;html=1;curved=0;" parent="1" edge="1">
          <mxGeometry relative="1" as="geometry">
            <mxPoint x="1003" y="1959" as="sourcePoint" />
            <mxPoint x="1003" y="1994.0344827586207" as="targetPoint" />
            <Array as="points">
              <mxPoint x="1059" y="1959" />
              <mxPoint x="1059" y="1994" />
            </Array>
          </mxGeometry>
        </mxCell>
        <mxCell id="UOhI1Jb9BPqGJdpc2Sex-49" value="&lt;span style=&quot;font-size: 10px;&quot;&gt;Valida trama de consulta&amp;nbsp;&lt;/span&gt;&lt;div&gt;&lt;span style=&quot;font-size: 10px;&quot;&gt;saldos y movimientos&lt;/span&gt;&lt;/div&gt;" style="edgeLabel;html=1;align=center;verticalAlign=middle;resizable=0;points=[];" parent="UOhI1Jb9BPqGJdpc2Sex-48" vertex="1" connectable="0">
          <mxGeometry x="-0.0246" y="2" relative="1" as="geometry">
            <mxPoint x="-10" as="offset" />
          </mxGeometry>
        </mxCell>
        <mxCell id="UOhI1Jb9BPqGJdpc2Sex-50" value="" style="endArrow=classic;html=1;rounded=0;" parent="1" edge="1">
          <mxGeometry width="50" height="50" relative="1" as="geometry">
            <mxPoint x="525" y="1920" as="sourcePoint" />
            <mxPoint x="1000" y="1920" as="targetPoint" />
          </mxGeometry>
        </mxCell>
        <mxCell id="UOhI1Jb9BPqGJdpc2Sex-52" value="&lt;span style=&quot;text-align: left; font-size: 11px;&quot;&gt;Direcciona&amp;nbsp;trama de consulta de Saldos y Movimientos. a Stratos On-Premise&lt;/span&gt;" style="text;html=1;align=center;verticalAlign=middle;whiteSpace=wrap;rounded=0;" parent="1" vertex="1">
          <mxGeometry x="560" y="1897" width="410" height="30" as="geometry" />
        </mxCell>
        <mxCell id="UOhI1Jb9BPqGJdpc2Sex-53" style="edgeStyle=orthogonalEdgeStyle;rounded=0;orthogonalLoop=1;jettySize=auto;html=1;curved=0;" parent="1" edge="1">
          <mxGeometry relative="1" as="geometry">
            <mxPoint x="760" y="1720" as="sourcePoint" />
            <mxPoint x="760" y="1755.0344827586205" as="targetPoint" />
            <Array as="points">
              <mxPoint x="816" y="1720" />
              <mxPoint x="816" y="1755" />
            </Array>
          </mxGeometry>
        </mxCell>
        <mxCell id="UOhI1Jb9BPqGJdpc2Sex-54" value="&lt;span style=&quot;font-size: 10px;&quot;&gt;Actualiza saldos&amp;nbsp;&lt;/span&gt;&lt;div&gt;&lt;span style=&quot;font-size: 10px;&quot;&gt;Stand In&lt;/span&gt;&lt;/div&gt;" style="edgeLabel;html=1;align=center;verticalAlign=middle;resizable=0;points=[];" parent="UOhI1Jb9BPqGJdpc2Sex-53" vertex="1" connectable="0">
          <mxGeometry x="-0.0246" y="2" relative="1" as="geometry">
            <mxPoint as="offset" />
          </mxGeometry>
        </mxCell>
        <mxCell id="UOhI1Jb9BPqGJdpc2Sex-55" value="" style="endArrow=open;html=1;rounded=0;dashed=1;endFill=0;" parent="1" source="Bnk67_aWibF8yN_9XxKm-28" edge="1">
          <mxGeometry width="50" height="50" relative="1" as="geometry">
            <mxPoint x="766" y="1837" as="sourcePoint" />
            <mxPoint x="523.8333333333335" y="1837" as="targetPoint" />
          </mxGeometry>
        </mxCell>
        <mxCell id="UOhI1Jb9BPqGJdpc2Sex-56" value="&lt;font style=&quot;font-size: 11px;&quot;&gt;Retorna balance y&amp;nbsp;&lt;/font&gt;&lt;div style=&quot;font-size: 11px;&quot;&gt;&lt;font style=&quot;font-size: 11px;&quot;&gt;movimientos de la CC asociada a la TDD&lt;/font&gt;&lt;/div&gt;" style="text;html=1;align=center;verticalAlign=middle;whiteSpace=wrap;rounded=0;" parent="1" vertex="1">
          <mxGeometry x="536" y="1804" width="219" height="30" as="geometry" />
        </mxCell>
        <mxCell id="UOhI1Jb9BPqGJdpc2Sex-57" style="edgeStyle=orthogonalEdgeStyle;rounded=0;orthogonalLoop=1;jettySize=auto;html=1;curved=0;" parent="1" edge="1">
          <mxGeometry relative="1" as="geometry">
            <mxPoint x="1001" y="2440" as="sourcePoint" />
            <mxPoint x="1001" y="2475.0344827586205" as="targetPoint" />
            <Array as="points">
              <mxPoint x="1057" y="2440" />
              <mxPoint x="1057" y="2475" />
            </Array>
          </mxGeometry>
        </mxCell>
        <mxCell id="UOhI1Jb9BPqGJdpc2Sex-58" value="&lt;span style=&quot;font-size: 10px;&quot;&gt;Actualiza saldos&amp;nbsp;&lt;/span&gt;&lt;div&gt;&lt;span style=&quot;font-size: 10px;&quot;&gt;Stand In&lt;/span&gt;&lt;/div&gt;" style="edgeLabel;html=1;align=center;verticalAlign=middle;resizable=0;points=[];" parent="UOhI1Jb9BPqGJdpc2Sex-57" vertex="1" connectable="0">
          <mxGeometry x="-0.0246" y="2" relative="1" as="geometry">
            <mxPoint as="offset" />
          </mxGeometry>
        </mxCell>
        <mxCell id="UOhI1Jb9BPqGJdpc2Sex-59" value="" style="endArrow=open;html=1;rounded=0;dashed=1;endFill=0;" parent="1" edge="1">
          <mxGeometry width="50" height="50" relative="1" as="geometry">
            <mxPoint x="990" y="2520" as="sourcePoint" />
            <mxPoint x="508.8333333333335" y="2520" as="targetPoint" />
          </mxGeometry>
        </mxCell>
        <mxCell id="UOhI1Jb9BPqGJdpc2Sex-60" value="&lt;font style=&quot;font-size: 11px;&quot;&gt;Retorna balance y&amp;nbsp;&lt;/font&gt;&lt;span style=&quot;font-size: 11px; background-color: initial;&quot;&gt;movimientos de la CC asociada a la TDD&lt;/span&gt;" style="text;html=1;align=center;verticalAlign=middle;whiteSpace=wrap;rounded=0;" parent="1" vertex="1">
          <mxGeometry x="540" y="2494" width="410" height="30" as="geometry" />
        </mxCell>
        <mxCell id="UOhI1Jb9BPqGJdpc2Sex-61" value="alt" style="shape=umlFrame;whiteSpace=wrap;html=1;pointerEvents=0;recursiveResize=0;container=1;collapsible=0;width=80;height=15;" parent="1" vertex="1">
          <mxGeometry x="359" y="560" width="1881" height="2000" as="geometry" />
        </mxCell>
        <mxCell id="UOhI1Jb9BPqGJdpc2Sex-62" value="&lt;font style=&quot;font-size: 12px;&quot;&gt;[BIN == BIN Plard]&lt;/font&gt;" style="text;html=1;rotation=0;" parent="UOhI1Jb9BPqGJdpc2Sex-61" vertex="1">
          <mxGeometry width="140" height="20" relative="1" as="geometry">
            <mxPoint x="41" y="40" as="offset" />
          </mxGeometry>
        </mxCell>
        <mxCell id="UOhI1Jb9BPqGJdpc2Sex-63" value="" style="line;strokeWidth=2;dashed=1;labelPosition=center;verticalLabelPosition=bottom;align=left;verticalAlign=top;spacingLeft=20;spacingTop=15;html=1;whiteSpace=wrap;" parent="UOhI1Jb9BPqGJdpc2Sex-61" vertex="1">
          <mxGeometry y="1314" width="1880" height="10" as="geometry" />
        </mxCell>
        <mxCell id="UOhI1Jb9BPqGJdpc2Sex-64" value="&lt;font style=&quot;font-size: 12px;&quot;&gt;[Else]&lt;/font&gt;" style="text;html=1;rotation=0;fontColor=#000000;" parent="UOhI1Jb9BPqGJdpc2Sex-61" vertex="1">
          <mxGeometry width="50" height="20" relative="1" as="geometry">
            <mxPoint x="41" y="1338" as="offset" />
          </mxGeometry>
        </mxCell>
        <mxCell id="rcuyuubHEXPFA7V1nobL-4" value="Consulta balance de la CC&lt;div&gt;&lt;span style=&quot;background-color: initial;&quot;&gt;[API Gluon -&amp;nbsp;&lt;/span&gt;&lt;span style=&quot;white-space-collapse: preserve; color: rgb(36, 36, 36); font-family: &amp;quot;Aptos Narrow&amp;quot;, Calibri, &amp;quot;sans-serif&amp;quot;, &amp;quot;Mongolian Baiti&amp;quot;, &amp;quot;Microsoft Yi Baiti&amp;quot;, &amp;quot;Javanese Text&amp;quot;, &amp;quot;Yu Gothic&amp;quot;; font-size: 14.6667px; text-align: left; background-color: rgb(255, 255, 255);&quot;&gt;Account Balances, Transactions, and Holds&lt;/span&gt;&lt;span style=&quot;background-color: initial;&quot;&gt;]&lt;/span&gt;&lt;br&gt;&lt;/div&gt;&lt;div&gt;&lt;span style=&quot;color: rgb(36, 36, 36); font-family: &amp;quot;Aptos Narrow&amp;quot;, Calibri, &amp;quot;sans-serif&amp;quot;, &amp;quot;Mongolian Baiti&amp;quot;, &amp;quot;Microsoft Yi Baiti&amp;quot;, &amp;quot;Javanese Text&amp;quot;, &amp;quot;Yu Gothic&amp;quot;; font-size: 14.6667px; text-align: left; white-space-collapse: preserve; background-color: rgb(255, 255, 255);&quot;&gt;&lt;b&gt;(Get )/v3/account_balances_transactions_holds/{account_id}/balances&lt;/b&gt;&lt;/span&gt;&lt;span style=&quot;background-color: initial;&quot;&gt;&lt;br&gt;&lt;/span&gt;&lt;/div&gt;" style="text;html=1;align=center;verticalAlign=middle;whiteSpace=wrap;rounded=0;" parent="UOhI1Jb9BPqGJdpc2Sex-61" vertex="1">
          <mxGeometry x="1418" y="410" width="460" height="100" as="geometry" />
        </mxCell>
        <mxCell id="UOhI1Jb9BPqGJdpc2Sex-65" value="&lt;div style=&quot;&quot;&gt;&lt;b style=&quot;font-size: 12px;&quot;&gt;Funcionalidad:&lt;/b&gt;&lt;span style=&quot;font-size: 12px;&quot;&gt;&lt;span style=&quot;&quot;&gt;&amp;nbsp;&lt;/span&gt;&lt;/span&gt;&lt;span style=&quot;background-color: initial;&quot;&gt;Cliente Santander hace uso de un ATM Santander para consultar su saldo y Ãºltimos movimientos de tarjetas de dÃ©bito migradas a PLARD o existentes en PAMPA.&lt;/span&gt;&lt;span style=&quot;background-color: initial;&quot;&gt;&amp;nbsp;&amp;nbsp;&lt;/span&gt;&lt;span style=&quot;background-color: initial;&quot;&gt;&amp;nbsp;&amp;nbsp;&amp;nbsp;&amp;nbsp;&lt;/span&gt;&lt;span style=&quot;background-color: initial;&quot;&gt;&amp;nbsp; &amp;nbsp; &amp;nbsp; &amp;nbsp; &amp;nbsp; &amp;nbsp; &amp;nbsp; &amp;nbsp;&amp;nbsp;&lt;/span&gt;&lt;/div&gt;&lt;div style=&quot;font-size: 12px;&quot;&gt;&lt;br&gt;&lt;/div&gt;&lt;div style=&quot;font-size: 12px;&quot;&gt;&lt;b&gt;Alcance&lt;/b&gt;: MVP-Full debit La funcioanlidad de consulta de saldos y movimientos aplica para:&lt;/div&gt;&lt;div style=&quot;font-size: 12px;&quot;&gt;&lt;ul&gt;&lt;li&gt;Tarjetas de dÃ©bito (TDD) asÃ­ como las cuenteas de cheques asociadas a estas.&lt;/li&gt;&lt;li&gt;Tarjetas de dÃ©bito no migradas a la plataforma PLARD, existentes en PAMPA.&lt;/li&gt;&lt;/ul&gt;&lt;span style=&quot;background-color: initial;&quot;&gt;este alcance se describe como &lt;/span&gt;&lt;b style=&quot;background-color: initial;&quot;&gt;MVP2 &lt;/b&gt;&lt;span style=&quot;background-color: initial;&quot;&gt;(Minimum Vialable Product)&lt;/span&gt;&lt;br&gt;&lt;/div&gt;&lt;div style=&quot;font-size: 12px;&quot;&gt;&lt;span style=&quot;background-color: initial;&quot;&gt;&lt;br&gt;&lt;/span&gt;&lt;/div&gt;&lt;div style=&quot;font-size: 12px;&quot;&gt;&lt;br&gt;&lt;/div&gt;&lt;div style=&quot;font-size: 12px;&quot;&gt;&lt;div&gt;&lt;b&gt;Reglas de Negocio:&lt;/b&gt;&amp;nbsp;&lt;/div&gt;&lt;div&gt;&lt;ul&gt;&lt;li&gt;El cliente debe contar con una tarjeta de dÃ©bito fÃ­sica activa sin cÃ³digos de bloqueo operativo.&lt;/li&gt;&lt;/ul&gt;&lt;div&gt;&lt;b style=&quot;background-color: initial;&quot;&gt;&lt;br&gt;&lt;/b&gt;&lt;/div&gt;&lt;div&gt;&lt;b style=&quot;background-color: initial;&quot;&gt;Precondiciones:&lt;/b&gt;&lt;br&gt;&lt;/div&gt;&lt;/div&gt;&lt;/div&gt;&lt;div style=&quot;&quot;&gt;&lt;ul&gt;&lt;li&gt;Cliente Santander con tarjeta activa, con algÃºn movimiento durante el mes de consulta&lt;/li&gt;&lt;/ul&gt;&lt;/div&gt;&lt;div style=&quot;&quot;&gt;&lt;br&gt;&lt;/div&gt;&lt;div style=&quot;&quot;&gt;&lt;b style=&quot;background-color: initial;&quot;&gt;Post-Condiciones:&amp;nbsp;&lt;/b&gt;&lt;br&gt;&lt;/div&gt;&lt;div style=&quot;&quot;&gt;&lt;ul&gt;&lt;li&gt;Consulta de Saldo de la Cuenta de Cheques asociada a la Tarjeta y Ãºltimos movimientos&lt;/li&gt;&lt;/ul&gt;&lt;/div&gt;&lt;div style=&quot;font-size: 12px;&quot;&gt;&lt;br&gt;&lt;/div&gt;&lt;div style=&quot;&quot;&gt;&lt;b&gt;Premisas:&lt;/b&gt;&lt;br&gt;&lt;/div&gt;&lt;div style=&quot;&quot;&gt;&lt;ul&gt;&lt;li&gt;Cliente TDD Santander con una tarjeta fÃ­sica de dÃ©bito requiera hacer uso de un ATM Santander&lt;/li&gt;&lt;/ul&gt;&lt;/div&gt;&lt;div style=&quot;font-size: 12px;&quot;&gt;&lt;b&gt;&lt;br&gt;&lt;/b&gt;&lt;/div&gt;&lt;div style=&quot;font-size: 12px;&quot;&gt;&lt;b&gt;&lt;br&gt;&lt;/b&gt;&lt;/div&gt;&lt;div style=&quot;font-size: 12px;&quot;&gt;&lt;br&gt;&lt;/div&gt;&lt;blockquote style=&quot;margin: 0px 0px 0px 40px; border: none; padding: 0px; font-size: 11px;&quot;&gt;&lt;div style=&quot;font-size: 12px;&quot;&gt;&lt;br&gt;&lt;/div&gt;&lt;div style=&quot;font-size: 12px;&quot;&gt;&lt;br&gt;&lt;/div&gt;&lt;div style=&quot;font-size: 12px;&quot;&gt;&lt;br&gt;&lt;/div&gt;&lt;div style=&quot;font-size: 12px;&quot;&gt;&lt;p style=&quot;margin-left:34.0pt;text-indent:-14.2pt;mso-list:l0 level1 lfo1&quot; class=&quot;Tabla&quot;&gt;&lt;br&gt;&lt;/p&gt;&lt;/div&gt;&lt;/blockquote&gt;" style="text;html=1;align=left;verticalAlign=top;whiteSpace=wrap;rounded=0;fontSize=12;strokeColor=default;" parent="1" vertex="1">
          <mxGeometry x="10" y="-540" width="510" height="460" as="geometry" />
        </mxCell>
        <mxCell id="UOhI1Jb9BPqGJdpc2Sex-66" value="Funcionalidad" style="rounded=0;whiteSpace=wrap;html=1;fontSize=14;fontStyle=1;fillColor=#bac8d3;strokeColor=#23445d;" parent="1" vertex="1">
          <mxGeometry x="10" y="-580" width="510" height="40" as="geometry" />
        </mxCell>
        <mxCell id="UOhI1Jb9BPqGJdpc2Sex-68" value="Escenarios" style="rounded=0;whiteSpace=wrap;html=1;fontSize=15;fontStyle=1;align=center;fillColor=#bac8d3;strokeColor=#23445d;" parent="1" vertex="1">
          <mxGeometry x="7" y="-62" width="513" height="42" as="geometry" />
        </mxCell>
        <mxCell id="UOhI1Jb9BPqGJdpc2Sex-69" value="&lt;div style=&quot;&quot;&gt;&lt;b style=&quot;font-size: 13px;&quot;&gt;Escenario 1: &lt;/b&gt;&lt;font size=&quot;1&quot; style=&quot;&quot;&gt;&lt;b style=&quot;font-size: 13px;&quot;&gt;Consulta de saldos y movimientos de una tarjeta existente en PLARD a travÃ©s del ATM.&lt;/b&gt;&lt;/font&gt;&lt;/div&gt;&lt;div style=&quot;font-size: 13px;&quot;&gt;&lt;b&gt;&lt;font style=&quot;font-size: 13px;&quot; color=&quot;#b5739d&quot;&gt;&lt;br&gt;&lt;/font&gt;&lt;/b&gt;&lt;/div&gt;&lt;div style=&quot;&quot;&gt;&lt;font style=&quot;font-size: 12px;&quot;&gt;Consultar balance de la cuenta de cheques asociada a la TDD asÃ­ como los ultimos diez movimientos de la cuenta retirando la dependencia de PAMPA para ir a CAPTACION utilizando la plataforma de PLARD.&lt;/font&gt;&lt;/div&gt;&lt;br&gt;&lt;div style=&quot;font-size: 12px;&quot;&gt;&lt;span style=&quot;&quot;&gt;&lt;span style=&quot;&quot;&gt;&amp;nbsp;&lt;/span&gt;&lt;/span&gt;&lt;/div&gt;" style="text;html=1;strokeColor=default;fillColor=none;align=left;verticalAlign=top;whiteSpace=wrap;rounded=0;fontSize=12;strokeWidth=1;" parent="1" vertex="1">
          <mxGeometry x="7" y="-22" width="513" height="102" as="geometry" />
        </mxCell>
        <mxCell id="UOhI1Jb9BPqGJdpc2Sex-70" value="&lt;div style=&quot;&quot;&gt;&lt;b style=&quot;&quot;&gt;&lt;span style=&quot;font-size: 13px;&quot;&gt;Escenario 2: &lt;/span&gt;&lt;font style=&quot;font-size: 13px;&quot;&gt;Consulta de saldos y movimientos de una TDD no migrada a PLARD a travÃ©s del ATM.&lt;/font&gt;&lt;/b&gt;&lt;/div&gt;&lt;div style=&quot;font-size: 13px;&quot;&gt;&lt;span style=&quot;background-color: initial;&quot;&gt;&lt;br&gt;&lt;/span&gt;&lt;/div&gt;&lt;div style=&quot;font-size: 13px;&quot;&gt;&lt;span style=&quot;font-size: 12px;&quot;&gt;Consultar balance de la cuenta de cheques asociada a la TDD asÃ­ como los ultimos diez movimientos llendo a CAPTACION a trÃ¡ves de PAMPA..&amp;nbsp;&lt;/span&gt;&lt;br&gt;&lt;/div&gt;&lt;div style=&quot;font-size: 12px;&quot;&gt;&lt;b&gt;&lt;br&gt;&lt;/b&gt;&lt;/div&gt;&lt;div style=&quot;font-size: 12px;&quot;&gt;&lt;b&gt;&amp;nbsp;&lt;/b&gt;&lt;/div&gt;&lt;br&gt;&lt;div style=&quot;font-size: 12px;&quot;&gt;&lt;span style=&quot;&quot;&gt;&lt;span style=&quot;&quot;&gt;&amp;nbsp;&lt;/span&gt;&lt;/span&gt;&lt;/div&gt;" style="text;html=1;strokeColor=#000000;fillColor=none;align=left;verticalAlign=top;whiteSpace=wrap;rounded=0;fontSize=12;strokeWidth=1;" parent="1" vertex="1">
          <mxGeometry x="7" y="79" width="513" height="101" as="geometry" />
        </mxCell>
        <mxCell id="bLQuJqx_T_UbeqvGgSOZ-1" value="Request: API GLUONÂ Â [Account Balances, Transactions, and Holds]&#xa;/v3/account_balances_transactions_holds/{account_id}/balances" style="shape=table;startSize=30;container=1;collapsible=0;childLayout=tableLayout;fillColor=#bac8d3;strokeColor=#23445d;fontStyle=1;fontSize=12;" parent="1" vertex="1">
          <mxGeometry x="559" y="-159" width="761" height="110" as="geometry" />
        </mxCell>
        <mxCell id="bLQuJqx_T_UbeqvGgSOZ-2" value="" style="shape=tableRow;horizontal=0;startSize=0;swimlaneHead=0;swimlaneBody=0;strokeColor=inherit;top=0;left=0;bottom=0;right=0;collapsible=0;dropTarget=0;fillColor=none;points=[[0,0.5],[1,0.5]];portConstraint=eastwest;" parent="bLQuJqx_T_UbeqvGgSOZ-1" vertex="1">
          <mxGeometry y="30" width="761" height="38" as="geometry" />
        </mxCell>
        <mxCell id="bLQuJqx_T_UbeqvGgSOZ-3" value="&lt;span style=&quot;color: rgb(36, 36, 36); font-family: &amp;quot;Aptos Narrow&amp;quot;, Calibri, &amp;quot;sans-serif&amp;quot;, &amp;quot;Mongolian Baiti&amp;quot;, &amp;quot;Microsoft Yi Baiti&amp;quot;, &amp;quot;Javanese Text&amp;quot;, &amp;quot;Yu Gothic&amp;quot;; text-align: left; white-space-collapse: preserve; background-color: rgb(238, 238, 238);&quot;&gt;&lt;font style=&quot;font-size: 11px;&quot;&gt;&lt;b style=&quot;&quot;&gt;Nombre del Campo&lt;/b&gt;&lt;/font&gt;&lt;/span&gt;" style="shape=partialRectangle;html=1;whiteSpace=wrap;connectable=0;strokeColor=default;overflow=hidden;fillColor=#eeeeee;top=0;left=0;bottom=0;right=0;pointerEvents=1;gradientColor=none;" parent="bLQuJqx_T_UbeqvGgSOZ-2" vertex="1">
          <mxGeometry width="191" height="38" as="geometry">
            <mxRectangle width="191" height="38" as="alternateBounds" />
          </mxGeometry>
        </mxCell>
        <mxCell id="bLQuJqx_T_UbeqvGgSOZ-4" value="&lt;span style=&quot;color: rgb(36, 36, 36); font-family: &amp;quot;Aptos Narrow&amp;quot;, Calibri, &amp;quot;sans-serif&amp;quot;, &amp;quot;Mongolian Baiti&amp;quot;, &amp;quot;Microsoft Yi Baiti&amp;quot;, &amp;quot;Javanese Text&amp;quot;, &amp;quot;Yu Gothic&amp;quot;; text-align: left; white-space-collapse: preserve; background-color: rgb(238, 238, 238);&quot;&gt;&lt;font style=&quot;font-size: 11px;&quot;&gt;&lt;b style=&quot;&quot;&gt;Describe la funcionalidad del campo&lt;/b&gt;&lt;/font&gt;&lt;/span&gt;" style="shape=partialRectangle;html=1;whiteSpace=wrap;connectable=0;strokeColor=#36393d;overflow=hidden;fillColor=#eeeeee;top=0;left=0;bottom=0;right=0;pointerEvents=1;" parent="bLQuJqx_T_UbeqvGgSOZ-2" vertex="1">
          <mxGeometry x="191" width="189" height="38" as="geometry">
            <mxRectangle width="189" height="38" as="alternateBounds" />
          </mxGeometry>
        </mxCell>
        <mxCell id="bLQuJqx_T_UbeqvGgSOZ-5" value="&lt;span style=&quot;color: rgb(36, 36, 36); font-family: &amp;quot;Aptos Narrow&amp;quot;, Calibri, &amp;quot;sans-serif&amp;quot;, &amp;quot;Mongolian Baiti&amp;quot;, &amp;quot;Microsoft Yi Baiti&amp;quot;, &amp;quot;Javanese Text&amp;quot;, &amp;quot;Yu Gothic&amp;quot;; text-align: left; white-space-collapse: preserve; background-color: rgb(238, 238, 238);&quot;&gt;&lt;font style=&quot;font-size: 11px;&quot;&gt;&lt;b style=&quot;&quot;&gt;Obligatoriedad&lt;/b&gt;&lt;/font&gt;&lt;/span&gt;" style="shape=partialRectangle;html=1;whiteSpace=wrap;connectable=0;strokeColor=#36393d;overflow=hidden;fillColor=#eeeeee;top=0;left=0;bottom=0;right=0;pointerEvents=1;" parent="bLQuJqx_T_UbeqvGgSOZ-2" vertex="1">
          <mxGeometry x="380" width="191" height="38" as="geometry">
            <mxRectangle width="191" height="38" as="alternateBounds" />
          </mxGeometry>
        </mxCell>
        <mxCell id="bLQuJqx_T_UbeqvGgSOZ-6" value="&lt;span style=&quot;color: rgb(36, 36, 36); font-family: &amp;quot;Aptos Narrow&amp;quot;, Calibri, &amp;quot;sans-serif&amp;quot;, &amp;quot;Mongolian Baiti&amp;quot;, &amp;quot;Microsoft Yi Baiti&amp;quot;, &amp;quot;Javanese Text&amp;quot;, &amp;quot;Yu Gothic&amp;quot;; text-align: left; white-space-collapse: preserve; background-color: rgb(238, 238, 238);&quot;&gt;&lt;font style=&quot;font-size: 11px;&quot;&gt;&lt;b style=&quot;&quot;&gt;Longitud/ Formato&lt;/b&gt;&lt;/font&gt;&lt;/span&gt;" style="shape=partialRectangle;html=1;whiteSpace=wrap;connectable=0;strokeColor=#36393d;overflow=hidden;fillColor=#eeeeee;top=0;left=0;bottom=0;right=0;pointerEvents=1;" parent="bLQuJqx_T_UbeqvGgSOZ-2" vertex="1">
          <mxGeometry x="571" width="190" height="38" as="geometry">
            <mxRectangle width="190" height="38" as="alternateBounds" />
          </mxGeometry>
        </mxCell>
        <mxCell id="bLQuJqx_T_UbeqvGgSOZ-9" value="" style="shape=tableRow;horizontal=0;startSize=0;swimlaneHead=0;swimlaneBody=0;strokeColor=inherit;top=0;left=0;bottom=0;right=0;collapsible=0;dropTarget=0;fillColor=none;points=[[0,0.5],[1,0.5]];portConstraint=eastwest;" parent="bLQuJqx_T_UbeqvGgSOZ-1" vertex="1">
          <mxGeometry y="68" width="761" height="42" as="geometry" />
        </mxCell>
        <mxCell id="bLQuJqx_T_UbeqvGgSOZ-10" value="&lt;span style=&quot;color: rgb(36, 36, 36); font-family: &amp;quot;Aptos Narrow&amp;quot;, Calibri, &amp;quot;sans-serif&amp;quot;, &amp;quot;Mongolian Baiti&amp;quot;, &amp;quot;Microsoft Yi Baiti&amp;quot;, &amp;quot;Javanese Text&amp;quot;, &amp;quot;Yu Gothic&amp;quot;; text-align: left; white-space-collapse: preserve; background-color: rgb(255, 255, 255);&quot;&gt;&lt;font style=&quot;font-size: 11px;&quot;&gt;NÃºmero de Cuenta Principal&lt;/font&gt;&lt;/span&gt;" style="shape=partialRectangle;html=1;whiteSpace=wrap;connectable=0;strokeColor=inherit;overflow=hidden;fillColor=none;top=0;left=0;bottom=0;right=0;pointerEvents=1;" parent="bLQuJqx_T_UbeqvGgSOZ-9" vertex="1">
          <mxGeometry width="191" height="42" as="geometry">
            <mxRectangle width="191" height="42" as="alternateBounds" />
          </mxGeometry>
        </mxCell>
        <mxCell id="bLQuJqx_T_UbeqvGgSOZ-11" value="&lt;span style=&quot;color: rgb(36, 36, 36); font-family: &amp;quot;Aptos Narrow&amp;quot;, Calibri, &amp;quot;sans-serif&amp;quot;, &amp;quot;Mongolian Baiti&amp;quot;, &amp;quot;Microsoft Yi Baiti&amp;quot;, &amp;quot;Javanese Text&amp;quot;, &amp;quot;Yu Gothic&amp;quot;; text-align: left; white-space-collapse: preserve; background-color: rgb(255, 255, 255);&quot;&gt;&lt;font style=&quot;font-size: 11px;&quot;&gt;Este valor representa el NÃºmero de la Cuenta de Cheques de 11 posiciones.&lt;/font&gt;&lt;/span&gt;" style="shape=partialRectangle;html=1;whiteSpace=wrap;connectable=0;strokeColor=inherit;overflow=hidden;fillColor=none;top=0;left=0;bottom=0;right=0;pointerEvents=1;" parent="bLQuJqx_T_UbeqvGgSOZ-9" vertex="1">
          <mxGeometry x="191" width="189" height="42" as="geometry">
            <mxRectangle width="189" height="42" as="alternateBounds" />
          </mxGeometry>
        </mxCell>
        <mxCell id="bLQuJqx_T_UbeqvGgSOZ-12" value="&lt;span style=&quot;color: rgb(36, 36, 36); font-family: &amp;quot;Aptos Narrow&amp;quot;, Calibri, &amp;quot;sans-serif&amp;quot;, &amp;quot;Mongolian Baiti&amp;quot;, &amp;quot;Microsoft Yi Baiti&amp;quot;, &amp;quot;Javanese Text&amp;quot;, &amp;quot;Yu Gothic&amp;quot;; text-align: left; white-space-collapse: preserve; background-color: rgb(255, 255, 255);&quot;&gt;&lt;font style=&quot;font-size: 11px;&quot;&gt;SI&lt;/font&gt;&lt;/span&gt;" style="shape=partialRectangle;html=1;whiteSpace=wrap;connectable=0;strokeColor=inherit;overflow=hidden;fillColor=none;top=0;left=0;bottom=0;right=0;pointerEvents=1;" parent="bLQuJqx_T_UbeqvGgSOZ-9" vertex="1">
          <mxGeometry x="380" width="191" height="42" as="geometry">
            <mxRectangle width="191" height="42" as="alternateBounds" />
          </mxGeometry>
        </mxCell>
        <mxCell id="bLQuJqx_T_UbeqvGgSOZ-13" value="&lt;span style=&quot;color: rgb(36, 36, 36); font-family: &amp;quot;Aptos Narrow&amp;quot;, Calibri, &amp;quot;sans-serif&amp;quot;, &amp;quot;Mongolian Baiti&amp;quot;, &amp;quot;Microsoft Yi Baiti&amp;quot;, &amp;quot;Javanese Text&amp;quot;, &amp;quot;Yu Gothic&amp;quot;; text-align: left; white-space-collapse: preserve; background-color: rgb(255, 255, 255);&quot;&gt;&lt;font style=&quot;font-size: 11px;&quot;&gt;11 / String&lt;/font&gt;&lt;/span&gt;" style="shape=partialRectangle;html=1;whiteSpace=wrap;connectable=0;strokeColor=inherit;overflow=hidden;fillColor=none;top=0;left=0;bottom=0;right=0;pointerEvents=1;" parent="bLQuJqx_T_UbeqvGgSOZ-9" vertex="1">
          <mxGeometry x="571" width="190" height="42" as="geometry">
            <mxRectangle width="190" height="42" as="alternateBounds" />
          </mxGeometry>
        </mxCell>
        <mxCell id="bLQuJqx_T_UbeqvGgSOZ-16" value="Response: API GLUONÂ Â [Account Balances, Transactions, and Holds]&#xa;/v3/account_balances_transactions_holds/{account_id}/balances" style="shape=table;startSize=30;container=1;collapsible=0;childLayout=tableLayout;fillColor=#bac8d3;strokeColor=#23445d;fontStyle=1" parent="1" vertex="1">
          <mxGeometry x="558.5" y="-40" width="761.5" height="200" as="geometry" />
        </mxCell>
        <mxCell id="bLQuJqx_T_UbeqvGgSOZ-17" value="" style="shape=tableRow;horizontal=0;startSize=0;swimlaneHead=0;swimlaneBody=0;strokeColor=inherit;top=0;left=0;bottom=0;right=0;collapsible=0;dropTarget=0;fillColor=none;points=[[0,0.5],[1,0.5]];portConstraint=eastwest;" parent="bLQuJqx_T_UbeqvGgSOZ-16" vertex="1">
          <mxGeometry y="30" width="761.5" height="30" as="geometry" />
        </mxCell>
        <mxCell id="bLQuJqx_T_UbeqvGgSOZ-18" value="&lt;span style=&quot;color: rgb(36, 36, 36); font-family: &amp;quot;Aptos Narrow&amp;quot;, Calibri, &amp;quot;sans-serif&amp;quot;, &amp;quot;Mongolian Baiti&amp;quot;, &amp;quot;Microsoft Yi Baiti&amp;quot;, &amp;quot;Javanese Text&amp;quot;, &amp;quot;Yu Gothic&amp;quot;; text-align: left; white-space-collapse: preserve; background-color: rgb(238, 238, 238);&quot;&gt;&lt;font style=&quot;font-size: 11px;&quot;&gt;&lt;b style=&quot;&quot;&gt;Nombre del Campo&lt;/b&gt;&lt;/font&gt;&lt;/span&gt;" style="shape=partialRectangle;html=1;whiteSpace=wrap;connectable=0;strokeColor=#36393d;overflow=hidden;fillColor=#eeeeee;top=0;left=0;bottom=0;right=0;pointerEvents=1;" parent="bLQuJqx_T_UbeqvGgSOZ-17" vertex="1">
          <mxGeometry width="191" height="30" as="geometry">
            <mxRectangle width="191" height="30" as="alternateBounds" />
          </mxGeometry>
        </mxCell>
        <mxCell id="bLQuJqx_T_UbeqvGgSOZ-19" value="&lt;span style=&quot;color: rgb(36, 36, 36); font-family: &amp;quot;Aptos Narrow&amp;quot;, Calibri, &amp;quot;sans-serif&amp;quot;, &amp;quot;Mongolian Baiti&amp;quot;, &amp;quot;Microsoft Yi Baiti&amp;quot;, &amp;quot;Javanese Text&amp;quot;, &amp;quot;Yu Gothic&amp;quot;; text-align: left; white-space-collapse: preserve; background-color: rgb(238, 238, 238);&quot;&gt;&lt;font style=&quot;font-size: 11px;&quot;&gt;&lt;b style=&quot;&quot;&gt;Describe la funcionalidad del campo&lt;/b&gt;&lt;/font&gt;&lt;/span&gt;" style="shape=partialRectangle;html=1;whiteSpace=wrap;connectable=0;strokeColor=#36393d;overflow=hidden;fillColor=#eeeeee;top=0;left=0;bottom=0;right=0;pointerEvents=1;" parent="bLQuJqx_T_UbeqvGgSOZ-17" vertex="1">
          <mxGeometry x="191" width="190" height="30" as="geometry">
            <mxRectangle width="190" height="30" as="alternateBounds" />
          </mxGeometry>
        </mxCell>
        <mxCell id="bLQuJqx_T_UbeqvGgSOZ-20" value="&lt;span style=&quot;color: rgb(36, 36, 36); font-family: &amp;quot;Aptos Narrow&amp;quot;, Calibri, &amp;quot;sans-serif&amp;quot;, &amp;quot;Mongolian Baiti&amp;quot;, &amp;quot;Microsoft Yi Baiti&amp;quot;, &amp;quot;Javanese Text&amp;quot;, &amp;quot;Yu Gothic&amp;quot;; text-align: left; white-space-collapse: preserve; background-color: rgb(238, 238, 238);&quot;&gt;&lt;font style=&quot;font-size: 11px;&quot;&gt;&lt;b style=&quot;&quot;&gt;Obligatoriedad&lt;/b&gt;&lt;/font&gt;&lt;/span&gt;" style="shape=partialRectangle;html=1;whiteSpace=wrap;connectable=0;strokeColor=#36393d;overflow=hidden;fillColor=#eeeeee;top=0;left=0;bottom=0;right=0;pointerEvents=1;" parent="bLQuJqx_T_UbeqvGgSOZ-17" vertex="1">
          <mxGeometry x="381" width="192" height="30" as="geometry">
            <mxRectangle width="192" height="30" as="alternateBounds" />
          </mxGeometry>
        </mxCell>
        <mxCell id="bLQuJqx_T_UbeqvGgSOZ-21" value="&lt;span style=&quot;color: rgb(36, 36, 36); font-family: &amp;quot;Aptos Narrow&amp;quot;, Calibri, &amp;quot;sans-serif&amp;quot;, &amp;quot;Mongolian Baiti&amp;quot;, &amp;quot;Microsoft Yi Baiti&amp;quot;, &amp;quot;Javanese Text&amp;quot;, &amp;quot;Yu Gothic&amp;quot;; text-align: left; white-space-collapse: preserve; background-color: rgb(238, 238, 238);&quot;&gt;&lt;font style=&quot;font-size: 11px;&quot;&gt;&lt;b style=&quot;&quot;&gt;Longitud/ Formato&lt;/b&gt;&lt;/font&gt;&lt;/span&gt;" style="shape=partialRectangle;html=1;whiteSpace=wrap;connectable=0;strokeColor=#36393d;overflow=hidden;fillColor=#eeeeee;top=0;left=0;bottom=0;right=0;pointerEvents=1;" parent="bLQuJqx_T_UbeqvGgSOZ-17" vertex="1">
          <mxGeometry x="573" width="189" height="30" as="geometry">
            <mxRectangle width="189" height="30" as="alternateBounds" />
          </mxGeometry>
        </mxCell>
        <mxCell id="bLQuJqx_T_UbeqvGgSOZ-24" value="" style="shape=tableRow;horizontal=0;startSize=0;swimlaneHead=0;swimlaneBody=0;strokeColor=inherit;top=0;left=0;bottom=0;right=0;collapsible=0;dropTarget=0;fillColor=none;points=[[0,0.5],[1,0.5]];portConstraint=eastwest;" parent="bLQuJqx_T_UbeqvGgSOZ-16" vertex="1">
          <mxGeometry y="60" width="761.5" height="40" as="geometry" />
        </mxCell>
        <mxCell id="bLQuJqx_T_UbeqvGgSOZ-25" value="&lt;span style=&quot;color: rgb(36, 36, 36); font-family: &amp;quot;Aptos Narrow&amp;quot;, Calibri, &amp;quot;sans-serif&amp;quot;, &amp;quot;Mongolian Baiti&amp;quot;, &amp;quot;Microsoft Yi Baiti&amp;quot;, &amp;quot;Javanese Text&amp;quot;, &amp;quot;Yu Gothic&amp;quot;; text-align: left; white-space-collapse: preserve; background-color: rgb(255, 255, 255);&quot;&gt;&lt;font style=&quot;font-size: 11px;&quot;&gt;NÃºmero de Cuenta Principal&lt;/font&gt;&lt;/span&gt;" style="shape=partialRectangle;html=1;whiteSpace=wrap;connectable=0;strokeColor=inherit;overflow=hidden;fillColor=none;top=0;left=0;bottom=0;right=0;pointerEvents=1;" parent="bLQuJqx_T_UbeqvGgSOZ-24" vertex="1">
          <mxGeometry width="191" height="40" as="geometry">
            <mxRectangle width="191" height="40" as="alternateBounds" />
          </mxGeometry>
        </mxCell>
        <mxCell id="bLQuJqx_T_UbeqvGgSOZ-26" value="&lt;span style=&quot;color: rgb(36, 36, 36); font-family: &amp;quot;Aptos Narrow&amp;quot;, Calibri, &amp;quot;sans-serif&amp;quot;, &amp;quot;Mongolian Baiti&amp;quot;, &amp;quot;Microsoft Yi Baiti&amp;quot;, &amp;quot;Javanese Text&amp;quot;, &amp;quot;Yu Gothic&amp;quot;; text-align: left; white-space-collapse: preserve; background-color: rgb(255, 255, 255);&quot;&gt;&lt;font style=&quot;font-size: 11px;&quot;&gt;Este valor representa el NÃºmero de la Cuenta de Cheques de 11 posiciones.&lt;/font&gt;&lt;/span&gt;" style="shape=partialRectangle;html=1;whiteSpace=wrap;connectable=0;strokeColor=inherit;overflow=hidden;fillColor=none;top=0;left=0;bottom=0;right=0;pointerEvents=1;" parent="bLQuJqx_T_UbeqvGgSOZ-24" vertex="1">
          <mxGeometry x="191" width="190" height="40" as="geometry">
            <mxRectangle width="190" height="40" as="alternateBounds" />
          </mxGeometry>
        </mxCell>
        <mxCell id="bLQuJqx_T_UbeqvGgSOZ-27" value="&lt;span style=&quot;color: rgb(36, 36, 36); font-family: &amp;quot;Aptos Narrow&amp;quot;, Calibri, &amp;quot;sans-serif&amp;quot;, &amp;quot;Mongolian Baiti&amp;quot;, &amp;quot;Microsoft Yi Baiti&amp;quot;, &amp;quot;Javanese Text&amp;quot;, &amp;quot;Yu Gothic&amp;quot;; text-align: left; white-space-collapse: preserve; background-color: rgb(255, 255, 255);&quot;&gt;&lt;font style=&quot;font-size: 11px;&quot;&gt;N/A&lt;/font&gt;&lt;/span&gt;" style="shape=partialRectangle;html=1;whiteSpace=wrap;connectable=0;strokeColor=inherit;overflow=hidden;fillColor=none;top=0;left=0;bottom=0;right=0;pointerEvents=1;" parent="bLQuJqx_T_UbeqvGgSOZ-24" vertex="1">
          <mxGeometry x="381" width="192" height="40" as="geometry">
            <mxRectangle width="192" height="40" as="alternateBounds" />
          </mxGeometry>
        </mxCell>
        <mxCell id="bLQuJqx_T_UbeqvGgSOZ-28" value="&lt;span style=&quot;color: rgb(36, 36, 36); font-family: &amp;quot;Aptos Narrow&amp;quot;, Calibri, &amp;quot;sans-serif&amp;quot;, &amp;quot;Mongolian Baiti&amp;quot;, &amp;quot;Microsoft Yi Baiti&amp;quot;, &amp;quot;Javanese Text&amp;quot;, &amp;quot;Yu Gothic&amp;quot;; text-align: left; white-space-collapse: preserve; background-color: rgb(255, 255, 255);&quot;&gt;&lt;font style=&quot;font-size: 11px;&quot;&gt;11 / String&lt;/font&gt;&lt;/span&gt;" style="shape=partialRectangle;html=1;whiteSpace=wrap;connectable=0;strokeColor=inherit;overflow=hidden;fillColor=none;top=0;left=0;bottom=0;right=0;pointerEvents=1;" parent="bLQuJqx_T_UbeqvGgSOZ-24" vertex="1">
          <mxGeometry x="573" width="189" height="40" as="geometry">
            <mxRectangle width="189" height="40" as="alternateBounds" />
          </mxGeometry>
        </mxCell>
        <mxCell id="bLQuJqx_T_UbeqvGgSOZ-38" style="shape=tableRow;horizontal=0;startSize=0;swimlaneHead=0;swimlaneBody=0;strokeColor=inherit;top=0;left=0;bottom=0;right=0;collapsible=0;dropTarget=0;fillColor=none;points=[[0,0.5],[1,0.5]];portConstraint=eastwest;" parent="bLQuJqx_T_UbeqvGgSOZ-16" vertex="1">
          <mxGeometry y="100" width="761.5" height="40" as="geometry" />
        </mxCell>
        <mxCell id="bLQuJqx_T_UbeqvGgSOZ-39" value="&lt;span style=&quot;color: rgb(36, 36, 36); font-family: &amp;quot;Aptos Narrow&amp;quot;, Calibri, &amp;quot;sans-serif&amp;quot;, &amp;quot;Mongolian Baiti&amp;quot;, &amp;quot;Microsoft Yi Baiti&amp;quot;, &amp;quot;Javanese Text&amp;quot;, &amp;quot;Yu Gothic&amp;quot;; text-align: left; white-space-collapse: preserve; background-color: rgb(255, 255, 255);&quot;&gt;&lt;font style=&quot;font-size: 11px;&quot;&gt;Divisa Principal (Moneda)&lt;/font&gt;&lt;/span&gt;" style="shape=partialRectangle;html=1;whiteSpace=wrap;connectable=0;strokeColor=inherit;overflow=hidden;fillColor=none;top=0;left=0;bottom=0;right=0;pointerEvents=1;" parent="bLQuJqx_T_UbeqvGgSOZ-38" vertex="1">
          <mxGeometry width="191" height="40" as="geometry">
            <mxRectangle width="191" height="40" as="alternateBounds" />
          </mxGeometry>
        </mxCell>
        <mxCell id="bLQuJqx_T_UbeqvGgSOZ-40" value="&lt;span style=&quot;color: rgb(36, 36, 36); font-family: &amp;quot;Aptos Narrow&amp;quot;, Calibri, &amp;quot;sans-serif&amp;quot;, &amp;quot;Mongolian Baiti&amp;quot;, &amp;quot;Microsoft Yi Baiti&amp;quot;, &amp;quot;Javanese Text&amp;quot;, &amp;quot;Yu Gothic&amp;quot;; text-align: left; white-space-collapse: preserve; background-color: rgb(255, 255, 255);&quot;&gt;&lt;font style=&quot;font-size: 11px;&quot;&gt;Este valor es el AcrÃ³nimo que representa la Moneda del Pais de 3 posiciones.&lt;/font&gt;&lt;/span&gt;" style="shape=partialRectangle;html=1;whiteSpace=wrap;connectable=0;strokeColor=inherit;overflow=hidden;fillColor=none;top=0;left=0;bottom=0;right=0;pointerEvents=1;" parent="bLQuJqx_T_UbeqvGgSOZ-38" vertex="1">
          <mxGeometry x="191" width="190" height="40" as="geometry">
            <mxRectangle width="190" height="40" as="alternateBounds" />
          </mxGeometry>
        </mxCell>
        <mxCell id="bLQuJqx_T_UbeqvGgSOZ-41" value="&lt;span style=&quot;color: rgb(36, 36, 36); font-family: &amp;quot;Aptos Narrow&amp;quot;, Calibri, &amp;quot;sans-serif&amp;quot;, &amp;quot;Mongolian Baiti&amp;quot;, &amp;quot;Microsoft Yi Baiti&amp;quot;, &amp;quot;Javanese Text&amp;quot;, &amp;quot;Yu Gothic&amp;quot;; text-align: left; white-space-collapse: preserve; background-color: rgb(255, 255, 255);&quot;&gt;&lt;font style=&quot;font-size: 11px;&quot;&gt;N/A&lt;/font&gt;&lt;/span&gt;" style="shape=partialRectangle;html=1;whiteSpace=wrap;connectable=0;strokeColor=inherit;overflow=hidden;fillColor=none;top=0;left=0;bottom=0;right=0;pointerEvents=1;" parent="bLQuJqx_T_UbeqvGgSOZ-38" vertex="1">
          <mxGeometry x="381" width="192" height="40" as="geometry">
            <mxRectangle width="192" height="40" as="alternateBounds" />
          </mxGeometry>
        </mxCell>
        <mxCell id="bLQuJqx_T_UbeqvGgSOZ-42" value="&lt;span style=&quot;color: rgb(36, 36, 36); font-family: &amp;quot;Aptos Narrow&amp;quot;, Calibri, &amp;quot;sans-serif&amp;quot;, &amp;quot;Mongolian Baiti&amp;quot;, &amp;quot;Microsoft Yi Baiti&amp;quot;, &amp;quot;Javanese Text&amp;quot;, &amp;quot;Yu Gothic&amp;quot;; text-align: left; white-space-collapse: preserve; background-color: rgb(255, 255, 255);&quot;&gt;&lt;font style=&quot;font-size: 11px;&quot;&gt;3 / String&lt;/font&gt;&lt;/span&gt;" style="shape=partialRectangle;html=1;whiteSpace=wrap;connectable=0;strokeColor=inherit;overflow=hidden;fillColor=none;top=0;left=0;bottom=0;right=0;pointerEvents=1;" parent="bLQuJqx_T_UbeqvGgSOZ-38" vertex="1">
          <mxGeometry x="573" width="189" height="40" as="geometry">
            <mxRectangle width="189" height="40" as="alternateBounds" />
          </mxGeometry>
        </mxCell>
        <mxCell id="bLQuJqx_T_UbeqvGgSOZ-45" style="shape=tableRow;horizontal=0;startSize=0;swimlaneHead=0;swimlaneBody=0;strokeColor=inherit;top=0;left=0;bottom=0;right=0;collapsible=0;dropTarget=0;fillColor=none;points=[[0,0.5],[1,0.5]];portConstraint=eastwest;" parent="bLQuJqx_T_UbeqvGgSOZ-16" vertex="1">
          <mxGeometry y="140" width="761.5" height="60" as="geometry" />
        </mxCell>
        <mxCell id="bLQuJqx_T_UbeqvGgSOZ-46" value="&lt;span style=&quot;color: rgb(36, 36, 36); font-family: &amp;quot;Aptos Narrow&amp;quot;, Calibri, &amp;quot;sans-serif&amp;quot;, &amp;quot;Mongolian Baiti&amp;quot;, &amp;quot;Microsoft Yi Baiti&amp;quot;, &amp;quot;Javanese Text&amp;quot;, &amp;quot;Yu Gothic&amp;quot;; text-align: left; white-space-collapse: preserve; background-color: rgb(255, 255, 255);&quot;&gt;&lt;font style=&quot;font-size: 11px;&quot;&gt;Importe disponible real de la cuenta&lt;/font&gt;&lt;/span&gt;" style="shape=partialRectangle;html=1;whiteSpace=wrap;connectable=0;strokeColor=inherit;overflow=hidden;fillColor=none;top=0;left=0;bottom=0;right=0;pointerEvents=1;" parent="bLQuJqx_T_UbeqvGgSOZ-45" vertex="1">
          <mxGeometry width="191" height="60" as="geometry">
            <mxRectangle width="191" height="60" as="alternateBounds" />
          </mxGeometry>
        </mxCell>
        <mxCell id="bLQuJqx_T_UbeqvGgSOZ-47" value="&lt;span style=&quot;color: rgb(36, 36, 36); font-family: &amp;quot;Aptos Narrow&amp;quot;, Calibri, &amp;quot;sans-serif&amp;quot;, &amp;quot;Mongolian Baiti&amp;quot;, &amp;quot;Microsoft Yi Baiti&amp;quot;, &amp;quot;Javanese Text&amp;quot;, &amp;quot;Yu Gothic&amp;quot;; text-align: left; white-space-collapse: preserve; background-color: rgb(255, 255, 255);&quot;&gt;&lt;font style=&quot;font-size: 11px;&quot;&gt;Este valor representa el Importe Disponible Real de la Cuenta de cheques con un tipo de dato nÃºmerico de 18 enteros y 5 decimales.&lt;/font&gt;&lt;/span&gt;" style="shape=partialRectangle;html=1;whiteSpace=wrap;connectable=0;strokeColor=inherit;overflow=hidden;fillColor=none;top=0;left=0;bottom=0;right=0;pointerEvents=1;" parent="bLQuJqx_T_UbeqvGgSOZ-45" vertex="1">
          <mxGeometry x="191" width="190" height="60" as="geometry">
            <mxRectangle width="190" height="60" as="alternateBounds" />
          </mxGeometry>
        </mxCell>
        <mxCell id="bLQuJqx_T_UbeqvGgSOZ-48" value="&lt;span style=&quot;color: rgb(36, 36, 36); font-family: &amp;quot;Aptos Narrow&amp;quot;, Calibri, &amp;quot;sans-serif&amp;quot;, &amp;quot;Mongolian Baiti&amp;quot;, &amp;quot;Microsoft Yi Baiti&amp;quot;, &amp;quot;Javanese Text&amp;quot;, &amp;quot;Yu Gothic&amp;quot;; text-align: left; white-space-collapse: preserve; background-color: rgb(255, 255, 255);&quot;&gt;&lt;font style=&quot;font-size: 11px;&quot;&gt;N/A&lt;/font&gt;&lt;/span&gt;" style="shape=partialRectangle;html=1;whiteSpace=wrap;connectable=0;strokeColor=inherit;overflow=hidden;fillColor=none;top=0;left=0;bottom=0;right=0;pointerEvents=1;" parent="bLQuJqx_T_UbeqvGgSOZ-45" vertex="1">
          <mxGeometry x="381" width="192" height="60" as="geometry">
            <mxRectangle width="192" height="60" as="alternateBounds" />
          </mxGeometry>
        </mxCell>
        <mxCell id="bLQuJqx_T_UbeqvGgSOZ-49" value="&lt;span style=&quot;color: rgb(36, 36, 36); font-family: &amp;quot;Aptos Narrow&amp;quot;, Calibri, &amp;quot;sans-serif&amp;quot;, &amp;quot;Mongolian Baiti&amp;quot;, &amp;quot;Microsoft Yi Baiti&amp;quot;, &amp;quot;Javanese Text&amp;quot;, &amp;quot;Yu Gothic&amp;quot;; text-align: left; white-space-collapse: preserve; background-color: rgb(255, 255, 255);&quot;&gt;&lt;font style=&quot;font-size: 11px;&quot;&gt;18.5 / String&lt;/font&gt;&lt;/span&gt;" style="shape=partialRectangle;html=1;whiteSpace=wrap;connectable=0;strokeColor=inherit;overflow=hidden;fillColor=none;top=0;left=0;bottom=0;right=0;pointerEvents=1;" parent="bLQuJqx_T_UbeqvGgSOZ-45" vertex="1">
          <mxGeometry x="573" width="189" height="60" as="geometry">
            <mxRectangle width="189" height="60" as="alternateBounds" />
          </mxGeometry>
        </mxCell>
        <mxCell id="rcuyuubHEXPFA7V1nobL-6" value="API" style="rounded=0;whiteSpace=wrap;html=1;fontSize=15;fontStyle=1;align=center;fillColor=#bac8d3;strokeColor=#23445d;" parent="1" vertex="1">
          <mxGeometry x="536" y="-213" width="804" height="42" as="geometry" />
        </mxCell>
        <mxCell id="rcuyuubHEXPFA7V1nobL-9" value="Consulta movimientos de la CC&lt;div&gt;&lt;span style=&quot;background-color: initial;&quot;&gt;[API Gluon -&amp;nbsp;&lt;/span&gt;&lt;span style=&quot;white-space-collapse: preserve; color: rgb(36, 36, 36); font-family: &amp;quot;Aptos Narrow&amp;quot;, Calibri, &amp;quot;sans-serif&amp;quot;, &amp;quot;Mongolian Baiti&amp;quot;, &amp;quot;Microsoft Yi Baiti&amp;quot;, &amp;quot;Javanese Text&amp;quot;, &amp;quot;Yu Gothic&amp;quot;; font-size: 14.6667px; text-align: left; background-color: rgb(255, 255, 255);&quot;&gt;TBD&lt;/span&gt;&lt;span style=&quot;background-color: initial;&quot;&gt;]&lt;/span&gt;&lt;br&gt;&lt;/div&gt;&lt;div&gt;&lt;span style=&quot;background-color: initial;&quot;&gt;&lt;br&gt;&lt;/span&gt;&lt;/div&gt;" style="text;html=1;align=center;verticalAlign=middle;whiteSpace=wrap;rounded=0;" parent="1" vertex="1">
          <mxGeometry x="1790" y="1431" width="171" height="60" as="geometry" />
        </mxCell>
      </root>
    </mxGraphModel>
  </diagram>
  <diagram id="g3efRKUIFH3CFgadWszy" name="Versiones">
    <mxGraphModel dx="1034" dy="557" grid="1" gridSize="10" guides="1" tooltips="1" connect="1" arrows="1" fold="1" page="1" pageScale="1" pageWidth="827" pageHeight="1169" math="0" shadow="0">
      <root>
        <mxCell id="0" />
        <mxCell id="1" parent="0" />
        <mxCell id="QOJwp3pk0zYt3Cambvdv-1" value="" style="shape=table;startSize=0;container=1;collapsible=0;childLayout=tableLayout;fontFamily=Roboto;fontSource=https://fonts.googleapis.com/css?family=Roboto;fontSize=16;strokeWidth=1;align=left;" parent="1" vertex="1">
          <mxGeometry x="80" y="101" width="1010" height="200" as="geometry" />
        </mxCell>
        <mxCell id="QOJwp3pk0zYt3Cambvdv-2" value="" style="shape=partialRectangle;collapsible=0;dropTarget=0;pointerEvents=0;fillColor=none;top=0;left=0;bottom=0;right=0;points=[[0,0.5],[1,0.5]];portConstraint=eastwest;fontFamily=Roboto;fontSource=https://fonts.googleapis.com/css?family=Roboto;fontSize=16;strokeWidth=1;" parent="QOJwp3pk0zYt3Cambvdv-1" vertex="1">
          <mxGeometry width="1010" height="40" as="geometry" />
        </mxCell>
        <mxCell id="QOJwp3pk0zYt3Cambvdv-3" value="NOMBRE" style="shape=partialRectangle;html=1;whiteSpace=wrap;connectable=0;overflow=hidden;fillColor=none;top=0;left=0;bottom=0;right=0;pointerEvents=1;fontFamily=Roboto;fontSource=https://fonts.googleapis.com/css?family=Roboto;fontSize=16;strokeWidth=1;" parent="QOJwp3pk0zYt3Cambvdv-2" vertex="1">
          <mxGeometry width="356" height="40" as="geometry">
            <mxRectangle width="356" height="40" as="alternateBounds" />
          </mxGeometry>
        </mxCell>
        <mxCell id="QOJwp3pk0zYt3Cambvdv-4" value="FECHA" style="shape=partialRectangle;html=1;whiteSpace=wrap;connectable=0;overflow=hidden;fillColor=none;top=0;left=0;bottom=0;right=0;pointerEvents=1;fontFamily=Roboto;fontSource=https://fonts.googleapis.com/css?family=Roboto;fontSize=16;strokeWidth=1;" parent="QOJwp3pk0zYt3Cambvdv-2" vertex="1">
          <mxGeometry x="356" width="109" height="40" as="geometry">
            <mxRectangle width="109" height="40" as="alternateBounds" />
          </mxGeometry>
        </mxCell>
        <mxCell id="QOJwp3pk0zYt3Cambvdv-5" value="VERSION" style="shape=partialRectangle;html=1;whiteSpace=wrap;connectable=0;overflow=hidden;fillColor=none;top=0;left=0;bottom=0;right=0;pointerEvents=1;fontFamily=Roboto;fontSource=https://fonts.googleapis.com/css?family=Roboto;fontSize=16;strokeWidth=1;" parent="QOJwp3pk0zYt3Cambvdv-2" vertex="1">
          <mxGeometry x="465" width="80" height="40" as="geometry">
            <mxRectangle width="80" height="40" as="alternateBounds" />
          </mxGeometry>
        </mxCell>
        <mxCell id="QOJwp3pk0zYt3Cambvdv-6" value="COMENTARIO" style="shape=partialRectangle;html=1;whiteSpace=wrap;connectable=0;overflow=hidden;fillColor=none;top=0;left=0;bottom=0;right=0;pointerEvents=1;fontFamily=Roboto;fontSource=https://fonts.googleapis.com/css?family=Roboto;fontSize=16;strokeWidth=1;" parent="QOJwp3pk0zYt3Cambvdv-2" vertex="1">
          <mxGeometry x="545" width="465" height="40" as="geometry">
            <mxRectangle width="465" height="40" as="alternateBounds" />
          </mxGeometry>
        </mxCell>
        <mxCell id="QOJwp3pk0zYt3Cambvdv-7" value="" style="shape=partialRectangle;collapsible=0;dropTarget=0;pointerEvents=0;fillColor=none;top=0;left=0;bottom=0;right=0;points=[[0,0.5],[1,0.5]];portConstraint=eastwest;fontFamily=Roboto;fontSource=https://fonts.googleapis.com/css?family=Roboto;fontSize=16;strokeWidth=1;" parent="QOJwp3pk0zYt3Cambvdv-1" vertex="1">
          <mxGeometry y="40" width="1010" height="40" as="geometry" />
        </mxCell>
        <mxCell id="QOJwp3pk0zYt3Cambvdv-8" value="Alberto Ozciel Salazar Rivera" style="shape=partialRectangle;html=1;whiteSpace=wrap;connectable=0;overflow=hidden;fillColor=none;top=0;left=0;bottom=0;right=0;pointerEvents=1;fontFamily=Roboto;fontSource=https://fonts.googleapis.com/css?family=Roboto;fontSize=16;strokeWidth=1;" parent="QOJwp3pk0zYt3Cambvdv-7" vertex="1">
          <mxGeometry width="356" height="40" as="geometry">
            <mxRectangle width="356" height="40" as="alternateBounds" />
          </mxGeometry>
        </mxCell>
        <mxCell id="QOJwp3pk0zYt3Cambvdv-9" value="18/10/2024" style="shape=partialRectangle;html=1;whiteSpace=wrap;connectable=0;overflow=hidden;fillColor=none;top=0;left=0;bottom=0;right=0;pointerEvents=1;fontFamily=Roboto;fontSource=https://fonts.googleapis.com/css?family=Roboto;fontSize=16;strokeWidth=1;" parent="QOJwp3pk0zYt3Cambvdv-7" vertex="1">
          <mxGeometry x="356" width="109" height="40" as="geometry">
            <mxRectangle width="109" height="40" as="alternateBounds" />
          </mxGeometry>
        </mxCell>
        <mxCell id="QOJwp3pk0zYt3Cambvdv-10" value="1.0" style="shape=partialRectangle;html=1;whiteSpace=wrap;connectable=0;overflow=hidden;fillColor=none;top=0;left=0;bottom=0;right=0;pointerEvents=1;fontFamily=Roboto;fontSource=https://fonts.googleapis.com/css?family=Roboto;fontSize=16;strokeWidth=1;" parent="QOJwp3pk0zYt3Cambvdv-7" vertex="1">
          <mxGeometry x="465" width="80" height="40" as="geometry">
            <mxRectangle width="80" height="40" as="alternateBounds" />
          </mxGeometry>
        </mxCell>
        <mxCell id="QOJwp3pk0zYt3Cambvdv-11" value="CreaciÃ³n del Documento" style="shape=partialRectangle;html=1;whiteSpace=wrap;connectable=0;overflow=hidden;fillColor=none;top=0;left=0;bottom=0;right=0;pointerEvents=1;fontFamily=Roboto;fontSource=https://fonts.googleapis.com/css?family=Roboto;fontSize=16;strokeWidth=1;align=left;" parent="QOJwp3pk0zYt3Cambvdv-7" vertex="1">
          <mxGeometry x="545" width="465" height="40" as="geometry">
            <mxRectangle width="465" height="40" as="alternateBounds" />
          </mxGeometry>
        </mxCell>
        <mxCell id="QOJwp3pk0zYt3Cambvdv-12" value="" style="shape=partialRectangle;collapsible=0;dropTarget=0;pointerEvents=0;fillColor=none;top=0;left=0;bottom=0;right=0;points=[[0,0.5],[1,0.5]];portConstraint=eastwest;fontFamily=Roboto;fontSource=https://fonts.googleapis.com/css?family=Roboto;fontSize=16;strokeWidth=1;" parent="QOJwp3pk0zYt3Cambvdv-1" vertex="1">
          <mxGeometry y="80" width="1010" height="40" as="geometry" />
        </mxCell>
        <mxCell id="QOJwp3pk0zYt3Cambvdv-13" value="Alberto Ozciel Salazar Rivera" style="shape=partialRectangle;html=1;whiteSpace=wrap;connectable=0;overflow=hidden;fillColor=none;top=0;left=0;bottom=0;right=0;pointerEvents=1;fontFamily=Roboto;fontSource=https://fonts.googleapis.com/css?family=Roboto;fontSize=16;strokeWidth=1;" parent="QOJwp3pk0zYt3Cambvdv-12" vertex="1">
          <mxGeometry width="356" height="40" as="geometry">
            <mxRectangle width="356" height="40" as="alternateBounds" />
          </mxGeometry>
        </mxCell>
        <mxCell id="QOJwp3pk0zYt3Cambvdv-14" value="30/10/2024" style="shape=partialRectangle;html=1;whiteSpace=wrap;connectable=0;overflow=hidden;fillColor=none;top=0;left=0;bottom=0;right=0;pointerEvents=1;fontFamily=Roboto;fontSource=https://fonts.googleapis.com/css?family=Roboto;fontSize=16;strokeWidth=1;" parent="QOJwp3pk0zYt3Cambvdv-12" vertex="1">
          <mxGeometry x="356" width="109" height="40" as="geometry">
            <mxRectangle width="109" height="40" as="alternateBounds" />
          </mxGeometry>
        </mxCell>
        <mxCell id="QOJwp3pk0zYt3Cambvdv-15" value="1.1" style="shape=partialRectangle;html=1;whiteSpace=wrap;connectable=0;overflow=hidden;fillColor=none;top=0;left=0;bottom=0;right=0;pointerEvents=1;fontFamily=Roboto;fontSource=https://fonts.googleapis.com/css?family=Roboto;fontSize=16;strokeWidth=1;" parent="QOJwp3pk0zYt3Cambvdv-12" vertex="1">
          <mxGeometry x="465" width="80" height="40" as="geometry">
            <mxRectangle width="80" height="40" as="alternateBounds" />
          </mxGeometry>
        </mxCell>
        <mxCell id="QOJwp3pk0zYt3Cambvdv-16" value="Consulta de saldos y movimientos desde ATM Santander" style="shape=partialRectangle;html=1;whiteSpace=wrap;connectable=0;overflow=hidden;fillColor=none;top=0;left=0;bottom=0;right=0;pointerEvents=1;fontFamily=Roboto;fontSource=https://fonts.googleapis.com/css?family=Roboto;fontSize=16;strokeWidth=1;align=left;" parent="QOJwp3pk0zYt3Cambvdv-12" vertex="1">
          <mxGeometry x="545" width="465" height="40" as="geometry">
            <mxRectangle width="465" height="40" as="alternateBounds" />
          </mxGeometry>
        </mxCell>
        <mxCell id="QOJwp3pk0zYt3Cambvdv-17" style="shape=partialRectangle;collapsible=0;dropTarget=0;pointerEvents=0;fillColor=none;top=0;left=0;bottom=0;right=0;points=[[0,0.5],[1,0.5]];portConstraint=eastwest;fontFamily=Roboto;fontSource=https://fonts.googleapis.com/css?family=Roboto;fontSize=16;strokeWidth=1;" parent="QOJwp3pk0zYt3Cambvdv-1" vertex="1">
          <mxGeometry y="120" width="1010" height="40" as="geometry" />
        </mxCell>
        <mxCell id="QOJwp3pk0zYt3Cambvdv-18" value="" style="shape=partialRectangle;html=1;whiteSpace=wrap;connectable=0;overflow=hidden;fillColor=none;top=0;left=0;bottom=0;right=0;pointerEvents=1;fontFamily=Roboto;fontSource=https://fonts.googleapis.com/css?family=Roboto;fontSize=16;strokeWidth=1;" parent="QOJwp3pk0zYt3Cambvdv-17" vertex="1">
          <mxGeometry width="356" height="40" as="geometry">
            <mxRectangle width="356" height="40" as="alternateBounds" />
          </mxGeometry>
        </mxCell>
        <mxCell id="QOJwp3pk0zYt3Cambvdv-19" value="" style="shape=partialRectangle;html=1;whiteSpace=wrap;connectable=0;overflow=hidden;fillColor=none;top=0;left=0;bottom=0;right=0;pointerEvents=1;fontFamily=Roboto;fontSource=https://fonts.googleapis.com/css?family=Roboto;fontSize=16;strokeWidth=1;" parent="QOJwp3pk0zYt3Cambvdv-17" vertex="1">
          <mxGeometry x="356" width="109" height="40" as="geometry">
            <mxRectangle width="109" height="40" as="alternateBounds" />
          </mxGeometry>
        </mxCell>
        <mxCell id="QOJwp3pk0zYt3Cambvdv-20" value="" style="shape=partialRectangle;html=1;whiteSpace=wrap;connectable=0;overflow=hidden;fillColor=none;top=0;left=0;bottom=0;right=0;pointerEvents=1;fontFamily=Roboto;fontSource=https://fonts.googleapis.com/css?family=Roboto;fontSize=16;strokeWidth=1;" parent="QOJwp3pk0zYt3Cambvdv-17" vertex="1">
          <mxGeometry x="465" width="80" height="40" as="geometry">
            <mxRectangle width="80" height="40" as="alternateBounds" />
          </mxGeometry>
        </mxCell>
        <mxCell id="QOJwp3pk0zYt3Cambvdv-21" value="" style="shape=partialRectangle;html=1;whiteSpace=wrap;connectable=0;overflow=hidden;fillColor=none;top=0;left=0;bottom=0;right=0;pointerEvents=1;fontFamily=Roboto;fontSource=https://fonts.googleapis.com/css?family=Roboto;fontSize=16;strokeWidth=1;align=left;" parent="QOJwp3pk0zYt3Cambvdv-17" vertex="1">
          <mxGeometry x="545" width="465" height="40" as="geometry">
            <mxRectangle width="465" height="40" as="alternateBounds" />
          </mxGeometry>
        </mxCell>
        <mxCell id="QOJwp3pk0zYt3Cambvdv-22" style="shape=partialRectangle;collapsible=0;dropTarget=0;pointerEvents=0;fillColor=none;top=0;left=0;bottom=0;right=0;points=[[0,0.5],[1,0.5]];portConstraint=eastwest;fontFamily=Roboto;fontSource=https://fonts.googleapis.com/css?family=Roboto;fontSize=16;strokeWidth=1;" parent="QOJwp3pk0zYt3Cambvdv-1" vertex="1">
          <mxGeometry y="160" width="1010" height="40" as="geometry" />
        </mxCell>
        <mxCell id="QOJwp3pk0zYt3Cambvdv-23" style="shape=partialRectangle;html=1;whiteSpace=wrap;connectable=0;overflow=hidden;fillColor=none;top=0;left=0;bottom=0;right=0;pointerEvents=1;fontFamily=Roboto;fontSource=https://fonts.googleapis.com/css?family=Roboto;fontSize=16;strokeWidth=1;" parent="QOJwp3pk0zYt3Cambvdv-22" vertex="1">
          <mxGeometry width="356" height="40" as="geometry">
            <mxRectangle width="356" height="40" as="alternateBounds" />
          </mxGeometry>
        </mxCell>
        <mxCell id="QOJwp3pk0zYt3Cambvdv-24" style="shape=partialRectangle;html=1;whiteSpace=wrap;connectable=0;overflow=hidden;fillColor=none;top=0;left=0;bottom=0;right=0;pointerEvents=1;fontFamily=Roboto;fontSource=https://fonts.googleapis.com/css?family=Roboto;fontSize=16;strokeWidth=1;" parent="QOJwp3pk0zYt3Cambvdv-22" vertex="1">
          <mxGeometry x="356" width="109" height="40" as="geometry">
            <mxRectangle width="109" height="40" as="alternateBounds" />
          </mxGeometry>
        </mxCell>
        <mxCell id="QOJwp3pk0zYt3Cambvdv-25" style="shape=partialRectangle;html=1;whiteSpace=wrap;connectable=0;overflow=hidden;fillColor=none;top=0;left=0;bottom=0;right=0;pointerEvents=1;fontFamily=Roboto;fontSource=https://fonts.googleapis.com/css?family=Roboto;fontSize=16;strokeWidth=1;" parent="QOJwp3pk0zYt3Cambvdv-22" vertex="1">
          <mxGeometry x="465" width="80" height="40" as="geometry">
            <mxRectangle width="80" height="40" as="alternateBounds" />
          </mxGeometry>
        </mxCell>
        <mxCell id="QOJwp3pk0zYt3Cambvdv-26" style="shape=partialRectangle;html=1;whiteSpace=wrap;connectable=0;overflow=hidden;fillColor=none;top=0;left=0;bottom=0;right=0;pointerEvents=1;fontFamily=Roboto;fontSource=https://fonts.googleapis.com/css?family=Roboto;fontSize=16;strokeWidth=1;align=left;" parent="QOJwp3pk0zYt3Cambvdv-22" vertex="1">
          <mxGeometry x="545" width="465" height="40" as="geometry">
            <mxRectangle width="465" height="40" as="alternateBounds" />
          </mxGeometry>
        </mxCell>
        <mxCell id="QOJwp3pk0zYt3Cambvdv-27" value="&lt;font style=&quot;font-size: 20px;&quot;&gt;CONTROL DE VERSIONES&lt;/font&gt;" style="rounded=0;whiteSpace=wrap;html=1;fontColor=#FFFFFF;labelBackgroundColor=none;fillColor=#36393D;fontSize=20;align=left;" parent="1" vertex="1">
          <mxGeometry x="80" y="50" width="1010" height="41" as="geometry" />
        </mxCell>
      </root>
    </mxGraphModel>
  </diagram>
</mxfile>
